<svg width="7135" height="5395" viewBox="0 0 7135 5395" fill="none" xmlns="http://www.w3.org/2000/svg">
<path d="M2003 1498C2025.09 1498 2043 1515.91 2043 1538L2043 1649C2043 1671.09 2025.09 1689 2003 1689L740 1689C717.909 1689 700 1671.09 700 1649L700 1538C700 1515.91 717.909 1498 740 1498L2003 1498Z" fill="#D9D9D9"/>
<path d="M2003 1185C2025.09 1185 2043 1202.91 2043 1225L2043 1336C2043 1358.09 2025.09 1376 2003 1376L740 1376C717.909 1376 700 1358.09 700 1336L700 1225C700 1202.91 717.909 1185 740 1185L2003 1185Z" fill="#D9D9D9"/>
<path d="M2003 872C2025.09 872 2043 889.909 2043 912L2043 1023C2043 1045.09 2025.09 1063 2003 1063L740 1063C717.909 1063 700 1045.09 700 1023L700 912C700 889.909 717.909 872 740 872L2003 872Z" fill="#D9D9D9"/>
<path d="M2003 559C2025.09 559 2043 576.909 2043 599L2043 710C2043 732.091 2025.09 750 2003 750L740 750C717.909 750 700 732.091 700 710L700 599C700 576.909 717.909 559 740 559L2003 559Z" fill="#D9D9D9"/>
<line x1="107" y1="107" x2="7028" y2="107" stroke="#19B6FF" stroke-width="214" stroke-linecap="round"/>
<line x1="428" y1="177" x2="428" y2="3696" stroke="#19B6FF" stroke-width="214" stroke-linecap="round"/>
<line x1="2692.24" y1="4223.22" x2="1858.22" y2="5287.76" stroke="#19B6FF" stroke-width="214" stroke-linecap="round"/>
<line x1="107" y1="-107" x2="1459.35" y2="-107" transform="matrix(0.616721 0.787182 0.787182 -0.616721 4235 4073)" stroke="#19B6FF" stroke-width="214" stroke-linecap="round"/>
<line x1="6711" y1="177" x2="6711" y2="3696" stroke="#19B6FF" stroke-width="214" stroke-linecap="round"/>
<line x1="107" y1="3696" x2="7028" y2="3696" stroke="#19B6FF" stroke-width="214" stroke-linecap="round"/>
<path d="M1370 872C1392.09 872 1410 889.909 1410 912L1410 1023C1410 1045.09 1392.09 1063 1370 1063L740 1063C717.909 1063 700 1045.09 700 1023L700 912C700 889.909 717.909 872 740 872L1370 872Z" fill="#19B6FF"/>
<path d="M1896 1185C1918.09 1185 1936 1202.91 1936 1225L1936 1336C1936 1358.09 1918.09 1376 1896 1376L740 1376C717.909 1376 700 1358.09 700 1336L700 1225C700 1202.91 717.909 1185 740 1185L1896 1185Z" fill="#19B6FF"/>
<path d="M1548 1498C1570.09 1498 1588 1515.91 1588 1538L1588 1649C1588 1671.09 1570.09 1689 1548 1689L740 1689C717.909 1689 700 1671.09 700 1649L700 1538C700 1515.91 717.909 1498 740 1498L1548 1498Z" fill="#19B6FF"/>
<path d="M1672 559C1694.09 559 1712 576.909 1712 599L1712 710C1712 732.091 1694.09 750 1672 750L740 750C717.909 750 700 732.091 700 710L700 599C700 576.909 717.909 559 740 559L1672 559Z" fill="#19B6FF"/>
<path d="M2043 2725C2043 3085.09 1751.09 3377 1391 3377C1030.91 3377 739 3085.09 739 2725C739 2364.91 1030.91 2073 1391 2073C1751.09 2073 2043 2364.91 2043 2725ZM868.748 2725C868.748 3013.43 1102.57 3247.25 1391 3247.25C1679.43 3247.25 1913.25 3013.43 1913.25 2725C1913.25 2436.57 1679.43 2202.75 1391 2202.75C1102.57 2202.75 868.748 2436.57 868.748 2725Z" fill="#D9D9D9"/>
<path d="M1391 2137.87C1391 2102.05 1420.12 2072.67 1455.77 2076.22C1559.78 2086.61 1660.12 2121.89 1748.11 2179.49C1854.25 2248.97 1937.81 2347.91 1988.56 2464.18C2039.31 2580.45 2055.03 2709 2033.81 2834.07C2012.59 2959.14 1955.34 3075.31 1869.08 3168.33C1782.82 3261.35 1671.3 3327.19 1548.18 3357.77C1425.06 3388.35 1295.69 3382.35 1175.93 3340.51C1056.17 3298.66 951.222 3222.79 873.942 3122.18C809.877 3038.78 767.136 2941.39 748.947 2838.46C742.712 2803.17 769.815 2771.93 805.542 2769.23V2769.23C841.269 2766.53 872.014 2793.44 879.119 2828.56C894.851 2906.32 928.16 2979.78 976.836 3043.14C1038.74 3123.73 1122.8 3184.5 1218.73 3218.02C1314.66 3251.54 1418.28 3256.35 1516.9 3231.85C1615.52 3207.35 1704.85 3154.62 1773.94 3080.11C1843.04 3005.6 1888.89 2912.55 1905.89 2812.36C1922.89 2712.18 1910.29 2609.21 1869.65 2516.08C1829 2422.95 1762.06 2343.7 1677.04 2288.05C1610.19 2244.28 1534.44 2216.6 1455.71 2206.77C1420.16 2202.33 1391 2173.7 1391 2137.87V2137.87Z" fill="#19B6FF"/>
<circle cx="3013" cy="3029" r="250" fill="#19B6FF"/>
<circle cx="3609" cy="2365" r="250" fill="#19B6FF"/>
<circle cx="4593" cy="2515" r="250" fill="#19B6FF"/>
<circle cx="5727" cy="2065" r="250" fill="#19B6FF"/>
<circle cx="6210" cy="1122" r="250" fill="#19B6FF"/>
<line x1="2984.74" y1="3051.24" x2="3572.74" y2="2384.24" stroke="#19B6FF" stroke-width="214"/>
<line x1="3668.99" y1="2368.2" x2="4601.99" y2="2509.2" stroke="#19B6FF" stroke-width="214"/>
<line x1="4675.25" y1="2516.91" x2="5758.25" y2="2044.91" stroke="#19B6FF" stroke-width="214"/>
<line x1="5774.54" y1="2015.66" x2="6251.54" y2="1073.66" stroke="#19B6FF" stroke-width="214"/>
</svg>
