<svg width="4963" height="4963" viewBox="0 0 4963 4963" fill="none" xmlns="http://www.w3.org/2000/svg">
<path d="M2481.5 0L4630.54 1240.75V3722.25L2481.5 4963L332.458 3722.25V1240.75L2481.5 0Z" fill="#19B6FF"/>
<path d="M1569.7 2908.65C1502.51 2908.65 1443.33 2898.3 1392.16 2877.59C1340.98 2856.89 1300.95 2828.18 1272.04 2791.46C1243.13 2754.35 1228.68 2711.58 1228.68 2663.14V2661.97C1228.68 2625.25 1237.08 2592.24 1253.88 2562.95C1270.67 2533.65 1293.72 2509.23 1323.02 2489.7C1352.31 2470.17 1385.91 2456.7 1423.8 2449.27V2445.76C1374.97 2433.65 1335.32 2411.19 1304.85 2378.38C1274.77 2345.17 1259.73 2305.91 1259.73 2260.6V2259.43C1259.73 2215.68 1272.82 2177.01 1298.99 2143.41C1325.16 2109.43 1361.49 2082.67 1407.98 2063.14C1454.85 2043.61 1508.76 2033.84 1569.7 2033.84C1630.63 2033.84 1684.34 2043.61 1730.83 2063.14C1777.31 2082.67 1813.64 2109.43 1839.81 2143.41C1866.38 2177.01 1879.66 2215.68 1879.66 2259.43V2260.6C1879.66 2305.91 1864.42 2345.17 1833.95 2378.38C1803.88 2411.19 1764.42 2433.65 1715.59 2445.76V2449.27C1753.48 2456.7 1787.08 2470.17 1816.38 2489.7C1845.67 2509.23 1868.52 2533.65 1884.93 2562.95C1901.73 2592.24 1910.12 2625.25 1910.12 2661.97V2663.14C1910.12 2711.58 1895.67 2754.35 1866.77 2791.46C1838.25 2828.18 1798.41 2856.89 1747.23 2877.59C1696.06 2898.3 1636.88 2908.65 1569.7 2908.65ZM1569.7 2779.74C1600.55 2779.74 1627.7 2774.27 1651.14 2763.34C1674.58 2752.4 1692.94 2737.16 1706.22 2717.63C1719.89 2698.1 1726.73 2676.03 1726.73 2651.42V2650.25C1726.73 2625.25 1720.09 2602.98 1706.8 2583.45C1693.52 2563.92 1674.97 2548.69 1651.14 2537.75C1627.7 2526.42 1600.55 2520.76 1569.7 2520.76C1538.45 2520.76 1510.91 2526.42 1487.08 2537.75C1463.64 2548.69 1445.28 2563.92 1432 2583.45C1418.72 2602.98 1412.08 2625.25 1412.08 2650.25V2651.42C1412.08 2676.03 1418.72 2698.1 1432 2717.63C1445.67 2737.16 1464.23 2752.4 1487.66 2763.34C1511.49 2774.27 1538.84 2779.74 1569.7 2779.74ZM1569.7 2392.44C1596.26 2392.44 1619.7 2387.55 1640.01 2377.79C1660.32 2368.02 1676.14 2354.55 1687.47 2337.36C1698.8 2319.78 1704.46 2299.66 1704.46 2277.01V2275.84C1704.46 2253.18 1698.6 2233.26 1686.88 2216.07C1675.55 2198.88 1659.73 2185.6 1639.42 2176.23C1619.11 2166.46 1595.87 2161.58 1569.7 2161.58C1543.13 2161.58 1519.7 2166.46 1499.38 2176.23C1479.07 2185.6 1463.05 2198.88 1451.34 2216.07C1440.01 2233.26 1434.34 2253.18 1434.34 2275.84V2277.01C1434.34 2299.66 1440.01 2319.78 1451.34 2337.36C1463.05 2354.55 1479.07 2368.02 1499.38 2377.79C1519.7 2387.55 1543.13 2392.44 1569.7 2392.44ZM2333.76 2908.65C2269.7 2908.65 2213.84 2898.3 2166.18 2877.59C2118.52 2856.5 2080.63 2827.4 2052.51 2790.29C2024.77 2753.18 2008.95 2710.41 2005.05 2661.97L2004.46 2654.35H2173.21L2174.38 2660.8C2177.12 2681.11 2185.12 2699.27 2198.41 2715.29C2212.08 2730.91 2230.24 2743.41 2252.9 2752.79C2275.95 2761.77 2302.7 2766.27 2333.17 2766.27C2363.64 2766.27 2390.01 2761.38 2412.27 2751.62C2434.54 2741.46 2451.73 2727.59 2463.84 2710.02C2476.34 2692.05 2482.59 2671.54 2482.59 2648.49V2647.32C2482.59 2606.7 2468.33 2575.64 2439.81 2554.16C2411.3 2532.67 2371.45 2521.93 2320.28 2521.93H2223.6V2395.95H2317.94C2347.62 2395.95 2373.41 2391.07 2395.28 2381.3C2417.16 2371.54 2433.95 2358.06 2445.67 2340.88C2457.78 2323.3 2463.84 2303.18 2463.84 2280.52V2279.35C2463.84 2256.3 2458.56 2236.77 2448.02 2220.76C2437.86 2204.35 2422.82 2191.85 2402.9 2183.26C2383.37 2174.27 2359.73 2169.78 2332 2169.78C2304.66 2169.78 2280.44 2174.27 2259.34 2183.26C2238.25 2192.24 2221.45 2204.94 2208.95 2221.34C2196.45 2237.36 2188.84 2256.3 2186.1 2278.18L2185.52 2283.45H2023.21L2023.8 2276.42C2027.7 2227.2 2042.74 2184.62 2068.91 2148.69C2095.48 2112.36 2131.22 2084.23 2176.14 2064.31C2221.06 2044 2273.02 2033.84 2332 2033.84C2392.94 2033.84 2445.67 2043.22 2490.2 2061.97C2535.12 2080.33 2569.89 2106.11 2594.5 2139.31C2619.11 2172.52 2631.41 2211.38 2631.41 2255.91V2257.09C2631.41 2292.24 2623.6 2323.1 2607.98 2349.66C2592.35 2376.23 2571.06 2398.1 2544.11 2415.29C2517.55 2432.48 2487.86 2444.59 2455.05 2451.62V2455.13C2517.94 2460.99 2568.13 2481.3 2605.63 2516.07C2643.52 2550.84 2662.47 2596.93 2662.47 2654.35V2655.52C2662.47 2705.91 2648.8 2750.05 2621.45 2787.95C2594.11 2825.84 2555.83 2855.52 2506.61 2877.01C2457.39 2898.1 2399.77 2908.65 2333.76 2908.65ZM2960.71 2483.84C2920.09 2483.84 2885.12 2474.86 2855.83 2456.89C2826.53 2438.92 2803.88 2413.34 2787.86 2380.13C2772.23 2346.93 2764.42 2307.67 2764.42 2262.36V2261.77C2764.42 2216.46 2772.23 2177.4 2787.86 2144.59C2803.88 2111.38 2826.53 2085.8 2855.83 2067.83C2885.12 2049.86 2920.09 2040.88 2960.71 2040.88C3001.34 2040.88 3036.1 2049.86 3065.01 2067.83C3094.3 2085.8 3116.77 2111.38 3132.39 2144.59C3148.41 2177.4 3156.41 2216.46 3156.41 2261.77V2262.36C3156.41 2307.67 3148.41 2346.93 3132.39 2380.13C3116.77 2413.34 3094.3 2438.92 3065.01 2456.89C3036.1 2474.86 3001.34 2483.84 2960.71 2483.84ZM2960.71 2386.58C2984.15 2386.58 3002.12 2376.03 3014.62 2354.94C3027.12 2333.45 3033.37 2302.59 3033.37 2262.36V2261.77C3033.37 2221.93 3027.12 2191.46 3014.62 2170.37C3002.12 2148.88 2984.15 2138.14 2960.71 2138.14C2936.88 2138.14 2918.52 2148.88 2905.63 2170.37C2893.13 2191.46 2886.88 2221.93 2886.88 2261.77V2262.36C2886.88 2302.59 2893.13 2333.45 2905.63 2354.94C2918.52 2376.03 2936.88 2386.58 2960.71 2386.58ZM3048.02 2894H2917.35L3451.73 2048.49H3581.8L3048.02 2894ZM3539.03 2901.62C3498.41 2901.62 3463.45 2892.63 3434.15 2874.66C3404.85 2856.7 3382.2 2831.11 3366.18 2797.91C3350.55 2764.7 3342.74 2725.45 3342.74 2680.13V2679.55C3342.74 2634.23 3350.55 2595.17 3366.18 2562.36C3382.2 2529.16 3404.85 2503.57 3434.15 2485.6C3463.45 2467.63 3498.41 2458.65 3539.03 2458.65C3579.66 2458.65 3614.42 2467.63 3643.33 2485.6C3672.62 2503.57 3695.09 2529.16 3710.71 2562.36C3726.73 2595.17 3734.73 2634.23 3734.73 2679.55V2680.13C3734.73 2725.45 3726.73 2764.7 3710.71 2797.91C3695.09 2831.11 3672.62 2856.7 3643.33 2874.66C3614.42 2892.63 3579.66 2901.62 3539.03 2901.62ZM3539.03 2804.35C3562.47 2804.35 3580.44 2793.8 3592.94 2772.71C3605.44 2751.23 3611.69 2720.37 3611.69 2680.13V2679.55C3611.69 2639.7 3605.44 2609.23 3592.94 2588.14C3580.44 2566.66 3562.47 2555.91 3539.03 2555.91C3515.2 2555.91 3496.84 2566.66 3483.95 2588.14C3471.45 2609.23 3465.2 2639.7 3465.2 2679.55V2680.13C3465.2 2720.37 3471.45 2751.23 3483.95 2772.71C3496.84 2793.8 3515.2 2804.35 3539.03 2804.35Z" fill="white"/>
</svg>
