<svg width="8664" height="1346" viewBox="0 0 8664 1346" fill="none" xmlns="http://www.w3.org/2000/svg">
<path d="M63 677.193C63 677.193 1409.5 1520.09 2127.25 677.195C2845 -165.695 3515.57 -117.413 4191.5 677.197C4867.42 1471.81 5455 1497.58 6393.75 677.195C7332.5 -143.193 8601 837.5 8601 837.5" stroke="#19B6FF" stroke-width="125" stroke-linecap="round"/>
<path d="M8601 677.193C8601 677.193 7254.5 1520.09 6536.75 677.195C5819 -165.695 5148.43 -117.413 4472.5 677.197C3796.58 1471.81 3209 1497.58 2270.25 677.195C1331.5 -143.193 63 837.5 63 837.5" stroke="#19B6FF" stroke-width="125" stroke-linecap="round"/>
<path d="M8156.5 738.996C8156.5 738.996 7157.5 921.484 6568 677.195C5978.5 432.906 5176.5 677.189 4472 902.498C3767.5 1127.81 2720 988.195 2147 677.195C1574 366.195 460.5 738.996 460.5 738.996" stroke="#19B6FF" stroke-width="125" stroke-linecap="round"/>
<path d="M460.5 738.996C460.5 738.996 1459.5 921.484 2049 677.195C2638.5 432.906 3440.5 677.189 4145 902.498C4849.5 1127.81 5897 988.195 6470 677.195C7043 366.195 8156.5 738.996 8156.5 738.996" stroke="#19B6FF" stroke-width="125" stroke-linecap="round"/>
</svg>
