<svg width="8533" height="1346" viewBox="0 0 8533 1346" fill="none" xmlns="http://www.w3.org/2000/svg">
<path d="M63.5 770.002C63.5 770.002 1391.5 1520.09 2109.25 677.197C2827 -165.694 3665.82 -117.411 4341.75 677.199C5017.68 1471.81 5605.25 1497.59 6544 677.197C7482.75 -143.191 8470 755.002 8470 755.002" stroke="#19B6FF" stroke-width="125" stroke-linecap="round"/>
<path d="M8470 768.503C8470 768.503 7236.5 1520.09 6518.75 677.198C5801 -165.694 4962.43 -117.415 4286.5 677.195C3610.57 1471.81 3023 1497.58 2084.25 677.193C1145.5 -143.196 63.5 762.001 63.5 762.001" stroke="#19B6FF" stroke-width="125" stroke-linecap="round"/>
<path d="M8138.5 739C8138.5 739 7139.5 921.488 6550 677.199C5960.5 432.91 5158.5 677.193 4454 902.502C3749.5 1127.81 2702 988.199 2129 677.199C1556 366.199 442.5 739 442.5 739" stroke="#19B6FF" stroke-width="125" stroke-linecap="round"/>
<path d="M442.5 739C442.5 739 1441.5 921.488 2031 677.199C2620.5 432.91 3422.5 677.193 4127 902.502C4831.5 1127.81 5879 988.199 6452 677.199C7025 366.199 8138.5 739 8138.5 739" stroke="#19B6FF" stroke-width="125" stroke-linecap="round"/>
</svg>
