<svg width="6174" height="6174" viewBox="0 0 6174 6174" fill="none" xmlns="http://www.w3.org/2000/svg">
<path d="M4857.02 5456.98C4899.65 5514.06 4980.68 5525.98 5035.93 5481C5506.9 5097.6 5855.12 4583.06 6035.53 4001.18C6228.7 3378.16 6219.55 2709.96 6009.41 2092.46C5799.26 1474.96 5398.92 939.899 4865.83 564.036C4332.73 188.174 3694.27 -9.16737 3042.07 0.32704C2389.86 9.82145 1757.42 225.663 1235.49 616.884C713.557 1008.11 328.961 1554.6 136.881 2177.95C-55.1989 2801.31 -44.8909 3469.48 166.326 4086.62C363.596 4663 726.649 5167.19 1208.58 5536.72C1265.12 5580.07 1345.76 5565.79 1386.71 5507.49L1483.29 5370.02C1524.24 5311.72 1509.95 5231.5 1453.71 5187.77C1045.3 4870.25 737.498 4439.88 569.379 3948.67C387.31 3416.7 378.425 2840.73 543.998 2303.4C709.571 1766.07 1041.09 1294.99 1491 957.76C1940.9 620.528 2486.06 434.472 3048.27 426.288C3610.47 418.104 4160.82 588.212 4620.35 912.205C5079.88 1236.2 5424.97 1697.43 5606.12 2229.71C5787.26 2761.99 5795.14 3337.98 5628.64 3875.02C5474.89 4370.91 5179.75 4810.07 4780.75 5139.34C4725.8 5184.69 4713.86 5265.29 4756.49 5322.37L4857.02 5456.98Z" fill="#D9D9D9"/>
<path d="M1383.48 5505.22C1342.45 5563.47 1261.79 5577.64 1205.31 5534.21C887.844 5290.1 620.562 4986.29 418.756 4639.43C195.303 4255.37 57.3932 3827.6 14.4504 3385.34C-28.4923 2943.09 24.5443 2496.77 169.936 2076.9C315.328 1657.02 549.648 1273.48 856.885 952.485C1164.12 631.487 1537.03 380.598 1950.14 216.962C2363.25 53.3248 2806.81 -19.203 3250.52 4.33406C3694.23 27.8711 4127.64 146.918 4521.11 353.341C4876.47 539.766 5191.7 793.488 5449.47 1099.97C5495.33 1154.49 5484.7 1235.69 5428.31 1279.23L5295.33 1381.91C5238.94 1425.45 5158.17 1414.81 5111.94 1360.59C4891.9 1102.49 4624.26 888.521 4323.2 730.586C3984.03 552.65 3610.44 450.031 3227.96 429.742C2845.48 409.453 2463.13 471.972 2107.03 613.027C1750.93 754.082 1429.48 970.348 1164.64 1247.05C899.802 1523.75 697.819 1854.36 572.491 2216.29C447.163 2578.22 401.446 2962.95 438.462 3344.17C475.479 3725.4 594.357 4094.14 786.974 4425.2C957.939 4719.04 1183.42 4977.06 1450.91 5185.59C1507.1 5229.4 1521.27 5309.63 1480.24 5367.87L1383.48 5505.22Z" fill="#19B6FF"/>
<path d="M2355.84 3427.65C2304.66 3427.65 2257.59 3418.66 2214.62 3400.7C2172.05 3382.73 2134.74 3355.97 2102.71 3320.42C2071.07 3284.48 2046.46 3239.76 2028.88 3186.24C2011.7 3132.34 2003.1 3069.45 2003.1 2997.57V2996.4C2003.1 2904.21 2017.36 2824.91 2045.88 2758.51C2074.39 2692.1 2115.02 2641.32 2167.75 2606.16C2220.88 2570.62 2284.16 2552.84 2357.59 2552.84C2412.28 2552.84 2461.5 2562.61 2505.25 2582.14C2549 2601.28 2585.13 2627.84 2613.65 2661.83C2642.55 2695.81 2661.11 2734.48 2669.31 2777.84L2670.48 2783.7H2495.88L2494.12 2778.43C2487.09 2761.24 2477.12 2746.4 2464.23 2733.9C2451.73 2721.01 2436.5 2711.05 2418.53 2704.02C2400.56 2696.59 2380.05 2692.88 2357.01 2692.88C2315.99 2692.88 2282.2 2704.8 2255.64 2728.62C2229.47 2752.45 2209.74 2784.48 2196.46 2824.72C2183.18 2864.95 2175.37 2910.07 2173.02 2960.07C2172.63 2965.93 2172.24 2971.79 2171.85 2977.65C2171.85 2983.51 2171.85 2989.37 2171.85 2995.23L2198.8 3135.85C2198.8 3163.98 2205.64 3189.56 2219.31 3212.61C2232.98 3235.27 2251.54 3253.43 2274.98 3267.1C2298.41 3280.38 2324.59 3287.02 2353.49 3287.02C2382.4 3287.02 2408.57 3280.38 2432.01 3267.1C2455.45 3253.82 2474.2 3236.05 2488.26 3213.78C2502.32 3191.12 2509.35 3165.93 2509.35 3138.2V3137.02C2509.35 3107.73 2502.52 3081.75 2488.84 3059.09C2475.56 3036.44 2457.2 3018.86 2433.77 3006.36C2410.72 2993.47 2384.55 2987.02 2355.25 2987.02C2325.95 2987.02 2299.39 2993.47 2275.56 3006.36C2251.73 3018.86 2232.98 3036.24 2219.31 3058.51C2205.64 3080.77 2198.8 3106.16 2198.8 3134.68V3135.85H2163.06V2992.3H2175.37C2186.7 2966.12 2203.1 2942.88 2224.59 2922.57C2246.46 2902.26 2272.63 2886.24 2303.1 2874.52C2333.96 2862.41 2368.34 2856.36 2406.23 2856.36C2460.91 2856.36 2508.77 2868.27 2549.78 2892.1C2591.19 2915.54 2623.41 2947.96 2646.46 2989.37C2669.9 3030.77 2681.62 3077.84 2681.62 3130.58V3131.75C2681.62 3189.56 2667.55 3240.73 2639.43 3285.27C2611.3 3329.41 2572.63 3364.17 2523.41 3389.56C2474.59 3414.95 2418.73 3427.65 2355.84 3427.65ZM3112.28 3427.65C3048.22 3427.65 2992.36 3417.3 2944.7 3396.59C2897.05 3375.5 2859.16 3346.4 2831.03 3309.29C2803.3 3272.18 2787.48 3229.41 2783.57 3180.97L2782.98 3173.35H2951.73L2952.91 3179.8C2955.64 3200.11 2963.65 3218.27 2976.93 3234.29C2990.6 3249.91 3008.77 3262.41 3031.42 3271.79C3054.47 3280.77 3081.23 3285.27 3111.7 3285.27C3142.16 3285.27 3168.53 3280.38 3190.8 3270.62C3213.06 3260.46 3230.25 3246.59 3242.36 3229.02C3254.86 3211.05 3261.11 3190.54 3261.11 3167.49V3166.32C3261.11 3125.7 3246.85 3094.64 3218.34 3073.16C3189.82 3051.67 3149.98 3040.93 3098.8 3040.93H3002.12V2914.95H3096.46C3126.15 2914.95 3151.93 2910.07 3173.8 2900.3C3195.68 2890.54 3212.48 2877.06 3224.2 2859.88C3236.3 2842.3 3242.36 2822.18 3242.36 2799.52V2798.35C3242.36 2775.3 3237.09 2755.77 3226.54 2739.76C3216.38 2723.35 3201.34 2710.85 3181.42 2702.26C3161.89 2693.27 3138.26 2688.78 3110.52 2688.78C3083.18 2688.78 3058.96 2693.27 3037.87 2702.26C3016.77 2711.24 2999.98 2723.94 2987.48 2740.34C2974.98 2756.36 2967.36 2775.3 2964.62 2797.18L2964.04 2802.45H2801.73L2802.32 2795.42C2806.23 2746.2 2821.27 2703.62 2847.44 2667.69C2874 2631.36 2909.74 2603.23 2954.66 2583.31C2999.59 2563 3051.54 2552.84 3110.52 2552.84C3171.46 2552.84 3224.2 2562.22 3268.73 2580.97C3313.65 2599.33 3348.41 2625.11 3373.02 2658.31C3397.63 2691.52 3409.94 2730.38 3409.94 2774.91V2776.09C3409.94 2811.24 3402.12 2842.1 3386.5 2868.66C3370.88 2895.23 3349.59 2917.1 3322.63 2934.29C3296.07 2951.48 3266.38 2963.59 3233.57 2970.62V2974.13C3296.46 2979.99 3346.66 3000.3 3384.16 3035.07C3422.05 3069.84 3440.99 3115.93 3440.99 3173.35V3174.52C3440.99 3224.91 3427.32 3269.05 3399.98 3306.95C3372.63 3344.84 3334.35 3374.52 3285.13 3396.01C3235.91 3417.1 3178.3 3427.65 3112.28 3427.65ZM3553.49 3413V3291.71L3852.32 3012.22C3889.04 2978.23 3916.77 2949.91 3935.52 2927.26C3954.27 2904.6 3966.97 2884.29 3973.61 2866.32C3980.64 2848.35 3984.16 2829.6 3984.16 2810.07V2808.9C3984.16 2785.85 3978.69 2765.54 3967.75 2747.96C3956.81 2729.99 3941.58 2715.93 3922.05 2705.77C3902.91 2695.62 3880.84 2690.54 3855.84 2690.54C3826.93 2690.54 3801.54 2696.4 3779.66 2708.12C3757.79 2719.45 3740.6 2735.27 3728.1 2755.58C3715.6 2775.5 3708.96 2798.16 3708.18 2823.55L3707.59 2828.82H3543.53V2824.13C3543.53 2771.01 3557.01 2724.13 3583.96 2683.51C3610.91 2642.49 3647.83 2610.46 3694.7 2587.41C3741.97 2564.37 3795.29 2552.84 3854.66 2552.84C3914.43 2552.84 3966.97 2563.39 4012.28 2584.48C4057.59 2605.19 4092.95 2634.09 4118.34 2671.2C4143.73 2708.31 4156.42 2750.89 4156.42 2798.94V2800.11C4156.42 2834.09 4150.17 2865.73 4137.67 2895.03C4125.56 2923.94 4105.45 2954.8 4077.32 2987.61C4049.2 3020.03 4010.72 3058.7 3961.89 3103.62L3716.97 3326.87L3784.94 3207.92V3326.87L3717.55 3272.38H4168.14V3413H3553.49Z" fill="#19B6FF"/>
</svg>
