<svg width="15039" height="17869" viewBox="0 0 15039 17869" fill="none" xmlns="http://www.w3.org/2000/svg">
<mask id="mask0_26_172" style="mask-type:alpha" maskUnits="userSpaceOnUse" x="255" y="255" width="14479" height="14479">
<rect x="255" y="255" width="14479" height="14479" rx="1117" fill="#FBFBFB"/>
</mask>
<g mask="url(#mask0_26_172)">
<ellipse cx="10245.9" cy="7249.12" rx="10477.9" ry="10877.8" transform="rotate(-39.2957 10245.9 7249.12)" fill="url(#paint0_radial_26_172)"/>
<ellipse cx="6524.07" cy="4422.52" rx="6014.05" ry="11794.7" transform="rotate(61.0005 6524.07 4422.52)" fill="url(#paint1_radial_26_172)"/>
</g>
<path d="M268.499 2633.8C268.499 2633.8 859.5 2799.31 1900.5 2633.8C2941.5 2468.29 4786 1308.78 8050.5 2255.3C11315 3201.82 11042.3 3679.05 12426.5 3580.3C13320.4 3516.52 13312 3276.29 14650 3012.29" stroke="url(#paint2_linear_26_172)" stroke-opacity="0.4" stroke-width="50"/>
<path d="M268.499 2633.8C268.499 2633.8 883.5 3130.81 2397.5 2752.31C3911.5 2373.81 5732.5 1450.78 8997 2397.3C12261.5 3343.82 11291.5 3319.8 12379.5 3485.3C13265.5 3620.08 13312 3276.3 14650 3012.3" stroke="url(#paint3_linear_26_172)" stroke-opacity="0.4" stroke-width="50"/>
<path d="M221 2539.24C221 2539.24 836.001 3036.25 2350 2657.75C3864 2279.25 5685 1309.22 8949.5 2255.75C12214 3202.27 12213.5 3573.27 12781.5 3532.75C13675.4 3468.97 13264.5 3181.74 14602.5 2917.74" stroke="url(#paint4_linear_26_172)" stroke-opacity="0.4" stroke-width="50"/>
<path d="M221 2203.1C221 2203.1 2150.5 2837.3 4316.5 2326.3C6482.5 1815.3 8838.5 2203.61 9472.5 2450.1C10106.5 2696.6 11223 3049.36 11877 3125.81C12903.3 3245.76 13398.5 3001.81 14736.5 2737.81" stroke="url(#paint5_linear_26_172)" stroke-width="160"/>
<path d="M233 2813.3C3536 756.797 9580 4570.3 14686 2813.3" stroke="url(#paint6_linear_26_172)" stroke-width="246"/>
<path d="M213 2615.3C213 2615.3 2713.5 2456.8 4879.5 1945.8C7045.5 1434.8 8859.5 1946.31 9493.5 2192.8C10127.5 2439.3 11712.5 3055.3 11712.5 3055.3C11712.5 3055.3 13315.5 3601.3 14653.5 3337.3" stroke="url(#paint7_linear_26_172)" stroke-width="200"/>
<path d="M219.5 2147.3C219.5 2147.3 2309.5 1848.3 3908.5 1997.8C5507.5 2147.3 5848.5 2808.3 7767.5 3341.3C9686.5 3874.3 11371 3341.3 11371 3341.3C11371 3341.3 13167.5 2752.3 14505.5 2488.3" stroke="url(#paint8_linear_26_172)" stroke-opacity="0.4" stroke-width="300"/>
<rect x="5929" y="4423" width="3747" height="906" rx="453" fill="#E4E4E4"/>
<circle cx="6524" cy="4876" r="198" fill="#13E500"/>
<path d="M7104.63 5058.86C7036.27 5058.86 6989.39 5029.32 6975.72 4988.3C6974.01 4982.93 6972.79 4977.07 6972.79 4971.21C6972.79 4955.34 6982.56 4945.09 6997.45 4945.09C7009.9 4945.09 7017.96 4950.71 7023.33 4963.89C7034.31 4996.85 7066.3 5012.23 7107.07 5012.23C7151.75 5012.23 7183.73 4989.28 7183.73 4957.79C7183.73 4930.44 7165.17 4913.35 7118.05 4903.1L7079.48 4895.04C7009.17 4880.15 6977.19 4847.43 6977.19 4796.65C6977.19 4736.35 7030.16 4694.85 7105.12 4694.85C7165.91 4694.85 7213.76 4723.41 7227.43 4770.53C7228.65 4773.95 7229.38 4778.1 7229.38 4783.22C7229.38 4797.38 7219.37 4806.66 7205.21 4806.66C7192.03 4806.66 7183.97 4800.56 7178.36 4787.86C7166.39 4755.39 7139.54 4741.48 7104.38 4741.48C7063.12 4741.48 7032.61 4761.5 7032.61 4793.72C7032.61 4819.36 7050.92 4836.45 7096.57 4846.21L7134.9 4854.27C7208.88 4869.89 7239.15 4899.44 7239.15 4950.71C7239.15 5017.11 7186.9 5058.86 7104.63 5058.86ZM7308.24 5144.06C7292.62 5144.06 7281.87 5133.32 7281.87 5115.99V4818.62C7281.87 4801.78 7292.37 4791.53 7307.26 4791.53C7322.16 4791.53 7332.9 4801.78 7332.9 4818.62V4840.35H7333.88C7349.01 4810.81 7378.55 4792.01 7415.66 4792.01C7480.85 4792.01 7523.82 4843.28 7523.82 4924.58C7523.82 5005.88 7481.09 5057.39 7416.64 5057.39C7379.77 5057.39 7350.48 5039.33 7335.83 5010.76H7334.61V5115.99C7334.61 5133.32 7323.62 5144.06 7308.24 5144.06ZM7401.75 5012.72C7443.49 5012.72 7469.62 4978.54 7469.62 4924.58C7469.62 4870.87 7443.49 4836.45 7401.75 4836.45C7361.46 4836.45 7334.36 4871.6 7334.36 4924.58C7334.36 4978.05 7361.22 5012.72 7401.75 5012.72ZM7675.92 5057.88C7598.52 5057.88 7553.11 5008.81 7553.11 4925.8C7553.11 4844.26 7599.5 4791.53 7672.25 4791.53C7740.61 4791.53 7787.73 4840.84 7787.73 4910.91C7787.73 4928 7777.97 4937.77 7761.61 4937.77H7606.34V4938.99C7606.34 4985.86 7632.7 5015.16 7674.7 5015.16C7703.5 5015.16 7721.57 5005.15 7741.1 4978.54C7746.72 4971.95 7752.09 4969.26 7759.66 4969.26C7772.35 4969.26 7781.63 4977.56 7781.63 4990.74C7781.63 4994.89 7780.16 4999.78 7777.97 5004.9C7761.12 5038.6 7723.77 5057.88 7675.92 5057.88ZM7606.58 4900.9H7735C7733.78 4860.62 7708.63 4834.01 7672.01 4834.01C7635.63 4834.01 7609.27 4860.86 7606.58 4900.9ZM7903.94 5057.39C7853.65 5057.39 7818.25 5026.14 7818.25 4980C7818.25 4935.08 7852.92 4907.49 7913.71 4904.07L7984.27 4899.92V4880.15C7984.27 4851.58 7964.98 4834.49 7932.75 4834.49C7907.36 4834.49 7890.52 4843.53 7875.87 4866.96C7870.5 4874.78 7863.66 4878.2 7854.38 4878.2C7841.2 4878.2 7831.68 4869.41 7831.68 4856.22C7831.68 4850.85 7833.14 4844.99 7836.32 4839.13C7849.74 4810.08 7888.56 4791.53 7934.71 4791.53C7996.96 4791.53 8036.76 4824.48 8036.76 4876V5031.03C8036.76 5047.63 8026.26 5057.64 8011.37 5057.64C7996.72 5057.64 7986.71 5048.12 7986.22 5032.49V5010.76H7985C7970.11 5039.33 7937.39 5057.39 7903.94 5057.39ZM7918.35 5015.65C7955.21 5015.65 7984.27 4990.26 7984.27 4956.81V4936.54L7920.79 4940.45C7889.29 4942.65 7871.47 4956.56 7871.47 4978.54C7871.47 5001 7890.27 5015.65 7918.35 5015.65ZM8116.35 5057.64C8100.96 5057.64 8089.98 5047.14 8089.98 5029.81V4723.9C8089.98 4706.56 8100.96 4696.07 8116.35 4696.07C8131.73 4696.07 8142.71 4706.56 8142.71 4723.9V4905.78H8143.2L8249.89 4801.29C8256.48 4794.21 8262.1 4791.53 8269.91 4791.53C8282.85 4791.53 8292.86 4801.54 8292.86 4813.99C8292.86 4821.55 8290.66 4826.44 8283.83 4832.79L8204.48 4907.98L8291.64 5015.89C8297.25 5022.97 8298.72 5027.85 8298.72 5034.45C8298.72 5047.87 8288.22 5057.64 8274.06 5057.64C8264.29 5057.64 8258.44 5054.46 8251.36 5044.7L8166.15 4939.23L8142.71 4961.2V5029.81C8142.71 5047.14 8131.73 5057.64 8116.35 5057.64ZM8368.54 4757.35C8351.7 4757.35 8338.03 4743.67 8338.03 4727.07C8338.03 4710.23 8351.7 4697.04 8368.54 4697.04C8385.63 4697.04 8399.3 4710.23 8399.3 4727.07C8399.3 4743.67 8385.63 4757.35 8368.54 4757.35ZM8368.54 5057.64C8352.67 5057.64 8342.18 5046.65 8342.18 5029.81V4819.6C8342.18 4802.51 8352.67 4791.53 8368.54 4791.53C8384.41 4791.53 8394.91 4802.51 8394.91 4819.6V5029.81C8394.91 5046.65 8384.41 5057.64 8368.54 5057.64ZM8475.23 5057.64C8459.61 5057.64 8448.87 5047.14 8448.87 5029.81V4818.14C8448.87 4802.02 8458.63 4791.53 8474.01 4791.53C8489.15 4791.53 8499.65 4802.02 8499.65 4818.38V4838.64H8500.87C8514.78 4809.35 8541.64 4791.77 8581.19 4791.77C8637.83 4791.77 8670.3 4827.9 8670.3 4886.74V5029.81C8670.3 5047.14 8659.31 5057.64 8643.69 5057.64C8628.31 5057.64 8617.32 5047.14 8617.32 5029.81V4896.99C8617.32 4858.42 8599.26 4837.18 8562.63 4837.18C8525.53 4837.18 8501.6 4863.55 8501.6 4903.34V5029.81C8501.6 5047.14 8490.61 5057.64 8475.23 5057.64ZM8828.99 5149.68C8782.36 5149.19 8745.5 5131.12 8727.92 5103.29C8724.5 5097.43 8723.04 5092.06 8723.04 5085.96C8723.04 5073.75 8732.07 5064.96 8745.5 5064.96C8753.55 5064.96 8758.68 5067.65 8765.76 5074.73C8786.76 5096.7 8804.82 5106.22 8829.97 5106.71C8872.94 5107.2 8899.06 5082.79 8899.06 5046.9V5006.12H8897.84C8883.44 5033.96 8853.16 5052.27 8816.54 5052.27C8751.84 5052.27 8709.85 5001.73 8709.85 4922.38C8709.85 4842.06 8751.36 4792.01 8817.76 4792.01C8854.14 4792.01 8882.46 4810.32 8898.08 4839.38H8899.06V4818.62C8899.06 4801.54 8910.54 4791.53 8925.67 4791.53C8940.81 4791.53 8952.04 4801.54 8952.04 4818.62V5045.92C8952.04 5109.4 8905.41 5150.41 8828.99 5149.68ZM8830.7 5009.3C8871.96 5009.3 8899.3 4975.61 8899.3 4922.87C8899.3 4870.14 8871.96 4835.47 8830.7 4835.47C8790.17 4835.47 8763.81 4869.16 8763.81 4922.63C8763.81 4976.34 8790.17 5009.3 8830.7 5009.3ZM9043.59 5055.69C9025.77 5055.69 9011.61 5041.53 9011.61 5023.7C9011.61 5005.88 9025.77 4991.72 9043.59 4991.72C9061.41 4991.72 9075.57 5005.88 9075.57 5023.7C9075.57 5041.53 9061.41 5055.69 9043.59 5055.69ZM9174.94 5055.69C9157.12 5055.69 9142.96 5041.53 9142.96 5023.7C9142.96 5005.88 9157.12 4991.72 9174.94 4991.72C9192.76 4991.72 9206.92 5005.88 9206.92 5023.7C9206.92 5041.53 9192.76 5055.69 9174.94 5055.69ZM9306.29 5055.69C9288.46 5055.69 9274.3 5041.53 9274.3 5023.7C9274.3 5005.88 9288.46 4991.72 9306.29 4991.72C9324.11 4991.72 9338.27 5005.88 9338.27 5023.7C9338.27 5041.53 9324.11 5055.69 9306.29 5055.69Z" fill="#727272"/>
<g filter="url(#filter0_d_26_172)">
<rect x="3388" y="14604" width="8007" height="2960" rx="606" fill="#FBFBFB"/>
</g>
<g filter="url(#filter1_d_26_172)">
<rect x="2122" y="13016" width="10705" height="3958" rx="606" fill="#FBFBFB" fill-opacity="0.29" shape-rendering="crispEdges"/>
</g>
<g filter="url(#filter2_d_26_172)">
<rect x="1141" y="6050" width="12667" height="10334" rx="1117" fill="white"/>
</g>
<path d="M7131.35 10154.7C7051.66 10154.7 7001.86 10098.8 7001.86 10009C7001.86 9919.73 7052.25 9863.48 7130.96 9863.48C7182.72 9863.48 7224.12 9888.67 7241.7 9930.27C7244.44 9935.94 7245.8 9941.8 7245.8 9947.07C7245.8 9958.79 7237.99 9966.41 7226.27 9966.41C7215.92 9966.41 7209.09 9961.33 7204.2 9950C7191.12 9918.55 7163.38 9901.76 7130.96 9901.76C7079.79 9901.76 7046.59 9943.75 7046.59 10009C7046.59 10074.8 7079.4 10116.4 7131.16 10116.4C7165.53 10116.4 7191.9 10101.8 7204.98 10071.3C7209.67 10060.9 7215.34 10056.6 7224.91 10056.6C7236.82 10056.6 7245.02 10064.8 7245.02 10076.4C7245.02 10082.4 7243.46 10088.1 7240.34 10094.5C7222.17 10132.6 7183.7 10154.7 7131.35 10154.7ZM7373.34 10153.9C7314.55 10153.9 7275.88 10113.5 7275.88 10047.3C7275.88 9981.25 7314.75 9940.82 7373.34 9940.82C7431.94 9940.82 7470.8 9981.25 7470.8 10047.3C7470.8 10113.5 7432.13 10153.9 7373.34 10153.9ZM7373.34 10119.1C7406.55 10119.1 7427.84 10093 7427.84 10047.3C7427.84 10001.8 7406.35 9975.59 7373.34 9975.59C7340.34 9975.59 7318.85 10001.8 7318.85 10047.3C7318.85 10093 7340.34 10119.1 7373.34 10119.1ZM7524.52 10153.7C7511.82 10153.7 7503.42 10144.9 7503.42 10131.4V9962.3C7503.42 9949.02 7511.62 9940.82 7523.54 9940.82C7535.26 9940.82 7543.66 9948.83 7543.66 9962.3V9979.1H7544.63C7553.81 9956.25 7575.3 9941.02 7603.03 9941.02C7631.55 9941.02 7652.25 9955.66 7660.45 9981.25H7661.43C7671.98 9956.25 7696.2 9941.02 7725.49 9941.02C7766.12 9941.02 7792.68 9967.97 7792.68 10008.8V10131.4C7792.68 10144.9 7784.09 10153.7 7771.39 10153.7C7758.7 10153.7 7750.3 10144.9 7750.3 10131.4V10018.9C7750.3 9992.38 7736.04 9977.15 7711.04 9977.15C7686.04 9977.15 7668.66 9995.7 7668.66 10021.7V10131.4C7668.66 10144.9 7660.65 10153.7 7647.95 10153.7C7635.26 10153.7 7627.25 10144.9 7627.25 10131.4V10015.8C7627.25 9992.19 7612.21 9977.15 7588.38 9977.15C7563.38 9977.15 7545.61 9996.68 7545.61 10023V10131.4C7545.61 10144.9 7537.21 10153.7 7524.52 10153.7ZM7854.59 10153.7C7841.9 10153.7 7833.5 10144.9 7833.5 10131.4V9962.3C7833.5 9949.02 7841.7 9940.82 7853.62 9940.82C7865.34 9940.82 7873.73 9948.83 7873.73 9962.3V9979.1H7874.71C7883.89 9956.25 7905.38 9941.02 7933.11 9941.02C7961.62 9941.02 7982.33 9955.66 7990.53 9981.25H7991.51C8002.05 9956.25 8026.27 9941.02 8055.57 9941.02C8096.2 9941.02 8122.76 9967.97 8122.76 10008.8V10131.4C8122.76 10144.9 8114.16 10153.7 8101.47 10153.7C8088.77 10153.7 8080.38 10144.9 8080.38 10131.4V10018.9C8080.38 9992.38 8066.12 9977.15 8041.12 9977.15C8016.12 9977.15 7998.73 9995.7 7998.73 10021.7V10131.4C7998.73 10144.9 7990.73 10153.7 7978.03 10153.7C7965.34 10153.7 7957.33 10144.9 7957.33 10131.4V10015.8C7957.33 9992.19 7942.29 9977.15 7918.46 9977.15C7893.46 9977.15 7875.69 9996.68 7875.69 10023V10131.4C7875.69 10144.9 7867.29 10153.7 7854.59 10153.7ZM8234.67 10153.7C8189.95 10153.7 8162.6 10124.6 8162.6 10077.5V9963.28C8162.6 9949.22 8171.2 9940.82 8183.7 9940.82C8196 9940.82 8204.79 9949.22 8204.79 9963.28V10069.3C8204.79 10100.6 8219.63 10117.4 8248.73 10117.4C8279.2 10117.4 8297.56 10096.3 8297.56 10064.3V9963.28C8297.56 9949.22 8306.35 9940.82 8318.66 9940.82C8331.16 9940.82 8339.75 9949.22 8339.75 9963.28V10132.2C8339.75 10145.3 8331.74 10153.7 8319.63 10153.7C8307.52 10153.7 8299.32 10145.3 8299.32 10132.4V10115.2H8298.34C8287.02 10139.8 8266.12 10153.7 8234.67 10153.7ZM8402.64 10153.7C8390.14 10153.7 8381.55 10145.3 8381.55 10131.4V9962.11C8381.55 9949.22 8389.36 9940.82 8401.66 9940.82C8413.77 9940.82 8422.17 9949.22 8422.17 9962.3V9978.52H8423.15C8434.28 9955.08 8455.77 9941.02 8487.41 9941.02C8532.72 9941.02 8558.7 9969.92 8558.7 10017V10131.4C8558.7 10145.3 8549.91 10153.7 8537.41 10153.7C8525.1 10153.7 8516.31 10145.3 8516.31 10131.4V10025.2C8516.31 9994.34 8501.86 9977.34 8472.56 9977.34C8442.88 9977.34 8423.73 9998.44 8423.73 10030.3V10131.4C8423.73 10145.3 8414.95 10153.7 8402.64 10153.7ZM8621.98 9913.48C8608.5 9913.48 8597.56 9902.54 8597.56 9889.26C8597.56 9875.78 8608.5 9865.23 8621.98 9865.23C8635.65 9865.23 8646.59 9875.78 8646.59 9889.26C8646.59 9902.54 8635.65 9913.48 8621.98 9913.48ZM8621.98 10153.7C8609.28 10153.7 8600.88 10144.9 8600.88 10131.4V9963.28C8600.88 9949.61 8609.28 9940.82 8621.98 9940.82C8634.67 9940.82 8643.07 9949.61 8643.07 9963.28V10131.4C8643.07 10144.9 8634.67 10153.7 8621.98 10153.7ZM8774.12 10153.9C8715.34 10153.9 8677.05 10113.1 8677.05 10047.7C8677.05 9982.62 8715.14 9940.82 8773.73 9940.82C8813.38 9940.82 8847.37 9961.91 8856.35 9990.62C8857.52 9993.95 8858.3 9997.46 8858.3 10000.4C8858.3 10011.1 8850.69 10017.8 8840.34 10017.8C8831.35 10017.8 8826.27 10014.3 8821.2 10004.9C8810.65 9985.35 8796.2 9975.98 8774.52 9975.98C8741.51 9975.98 8720.02 10003.5 8720.02 10047.3C8720.02 10092 8741.9 10118.6 8774.52 10118.6C8797.37 10118.6 8811.23 10108.4 8821.2 10090.6C8827.05 10080.5 8831.55 10077 8840.73 10077C8851.08 10077 8858.7 10084 8858.7 10094.5C8858.7 10097.9 8857.91 10101.4 8856.35 10105.5C8845.61 10133.8 8812.21 10153.9 8774.12 10153.9ZM8953.03 10153.5C8912.8 10153.5 8884.48 10128.5 8884.48 10091.6C8884.48 10055.7 8912.21 10033.6 8960.84 10030.9L9017.29 10027.5V10011.7C9017.29 9988.87 9001.86 9975.2 8976.08 9975.2C8955.77 9975.2 8942.29 9982.42 8930.57 10001.2C8926.27 10007.4 8920.8 10010.2 8913.38 10010.2C8902.84 10010.2 8895.22 10003.1 8895.22 9992.58C8895.22 9988.28 8896.39 9983.59 8898.93 9978.91C8909.67 9955.66 8940.73 9940.82 8977.64 9940.82C9027.45 9940.82 9059.28 9967.19 9059.28 10008.4V10132.4C9059.28 10145.7 9050.88 10153.7 9038.97 10153.7C9027.25 10153.7 9019.24 10146.1 9018.85 10133.6V10116.2H9017.88C9005.96 10139.1 8979.79 10153.5 8953.03 10153.5ZM8964.55 10120.1C8994.05 10120.1 9017.29 10099.8 9017.29 10073V10056.8L8966.51 10060C8941.31 10061.7 8927.05 10072.9 8927.05 10090.4C8927.05 10108.4 8942.09 10120.1 8964.55 10120.1ZM9112.6 10100.8V9977.93H9097.76C9086.82 9977.93 9080.18 9971.68 9080.18 9961.33C9080.18 9950.78 9086.82 9944.53 9097.76 9944.53H9112.6V9914.06C9112.6 9900.59 9121 9891.6 9133.89 9891.6C9146.59 9891.6 9154.98 9900.59 9154.98 9914.06V9944.53H9179.01C9189.95 9944.53 9196.59 9950.98 9196.59 9961.33C9196.59 9971.68 9189.95 9977.93 9179.01 9977.93H9154.98V10091.4C9154.98 10107.8 9160.65 10115.2 9175.88 10116.4L9179.2 10116.6C9191.31 10117.8 9197.37 10122.7 9197.37 10132.6C9197.37 10145.3 9187.6 10151.8 9166.9 10151.8H9164.75C9130.18 10151.8 9112.6 10134.8 9112.6 10100.8ZM9251.27 9913.48C9237.8 9913.48 9226.86 9902.54 9226.86 9889.26C9226.86 9875.78 9237.8 9865.23 9251.27 9865.23C9264.95 9865.23 9275.88 9875.78 9275.88 9889.26C9275.88 9902.54 9264.95 9913.48 9251.27 9913.48ZM9251.27 10153.7C9238.58 10153.7 9230.18 10144.9 9230.18 10131.4V9963.28C9230.18 9949.61 9238.58 9940.82 9251.27 9940.82C9263.97 9940.82 9272.37 9949.61 9272.37 9963.28V10131.4C9272.37 10144.9 9263.97 10153.7 9251.27 10153.7ZM9403.81 10153.9C9345.02 10153.9 9306.35 10113.5 9306.35 10047.3C9306.35 9981.25 9345.22 9940.82 9403.81 9940.82C9462.41 9940.82 9501.27 9981.25 9501.27 10047.3C9501.27 10113.5 9462.6 10153.9 9403.81 10153.9ZM9403.81 10119.1C9437.02 10119.1 9458.3 10093 9458.3 10047.3C9458.3 10001.8 9436.82 9975.59 9403.81 9975.59C9370.8 9975.59 9349.32 10001.8 9349.32 10047.3C9349.32 10093 9370.8 10119.1 9403.81 10119.1ZM9554.98 10153.7C9542.48 10153.7 9533.89 10145.3 9533.89 10131.4V9962.11C9533.89 9949.22 9541.7 9940.82 9554.01 9940.82C9566.12 9940.82 9574.52 9949.22 9574.52 9962.3V9978.52H9575.49C9586.62 9955.08 9608.11 9941.02 9639.75 9941.02C9685.06 9941.02 9711.04 9969.92 9711.04 10017V10131.4C9711.04 10145.3 9702.25 10153.7 9689.75 10153.7C9677.45 10153.7 9668.66 10145.3 9668.66 10131.4V10025.2C9668.66 9994.34 9654.2 9977.34 9624.91 9977.34C9595.22 9977.34 9576.08 9998.44 9576.08 10030.3V10131.4C9576.08 10145.3 9567.29 10153.7 9554.98 10153.7Z" fill="#6D6D6D"/>
<path d="M2499.09 7784.69C2444.41 7784.69 2406.91 7761.05 2395.97 7728.24C2394.6 7723.95 2393.62 7719.26 2393.62 7714.57C2393.62 7701.88 2401.44 7693.67 2413.35 7693.67C2423.31 7693.67 2429.76 7698.16 2434.05 7708.71C2442.84 7735.08 2468.43 7747.38 2501.05 7747.38C2536.79 7747.38 2562.38 7729.02 2562.38 7703.83C2562.38 7681.95 2547.53 7668.28 2509.84 7660.08L2478.98 7653.63C2422.73 7641.72 2397.14 7615.55 2397.14 7574.92C2397.14 7526.68 2439.52 7493.48 2499.48 7493.48C2548.12 7493.48 2586.4 7516.33 2597.34 7554.02C2598.31 7556.76 2598.9 7560.08 2598.9 7564.18C2598.9 7575.51 2590.89 7582.93 2579.56 7582.93C2569.02 7582.93 2562.57 7578.05 2558.08 7567.89C2548.51 7541.91 2527.02 7530.78 2498.9 7530.78C2465.89 7530.78 2441.48 7546.8 2441.48 7572.58C2441.48 7593.09 2456.12 7606.76 2492.65 7614.57L2523.31 7621.02C2582.49 7633.52 2606.71 7657.15 2606.71 7698.16C2606.71 7751.29 2564.91 7784.69 2499.09 7784.69ZM2653.2 7730.78V7607.93H2638.35C2627.41 7607.93 2620.77 7601.68 2620.77 7591.33C2620.77 7580.78 2627.41 7574.53 2638.35 7574.53H2653.2V7544.06C2653.2 7530.59 2661.59 7521.6 2674.48 7521.6C2687.18 7521.6 2695.58 7530.59 2695.58 7544.06V7574.53H2719.6C2730.54 7574.53 2737.18 7580.98 2737.18 7591.33C2737.18 7601.68 2730.54 7607.93 2719.6 7607.93H2695.58V7721.41C2695.58 7737.81 2701.24 7745.23 2716.48 7746.41L2719.8 7746.6C2731.91 7747.77 2737.96 7752.66 2737.96 7762.62C2737.96 7775.31 2728.2 7781.76 2707.49 7781.76H2705.34C2670.77 7781.76 2653.2 7764.77 2653.2 7730.78ZM2790.5 7783.71C2777.8 7783.71 2769.41 7775.12 2769.41 7761.45V7592.11C2769.41 7579.22 2777.61 7570.82 2789.52 7570.82C2801.24 7570.82 2809.45 7579.22 2809.45 7592.11V7609.69H2810.42C2816.09 7586.64 2835.03 7571.21 2855.54 7571.21C2862.96 7571.21 2868.62 7572.97 2872.14 7576.29C2876.05 7579.41 2877.8 7584.49 2877.8 7591.13C2877.8 7597.77 2875.66 7602.66 2871.55 7605.98C2867.26 7609.69 2861.01 7611.45 2852.22 7611.45C2823.31 7611.64 2811.59 7630.98 2811.59 7656.56V7761.45C2811.59 7775.12 2803 7783.71 2790.5 7783.71ZM2979.95 7783.91C2921.16 7783.91 2882.49 7743.48 2882.49 7677.27C2882.49 7611.25 2921.36 7570.82 2979.95 7570.82C3038.55 7570.82 3077.41 7611.25 3077.41 7677.27C3077.41 7743.48 3038.74 7783.91 2979.95 7783.91ZM2979.95 7749.14C3013.16 7749.14 3034.45 7722.97 3034.45 7677.27C3034.45 7631.76 3012.96 7605.59 2979.95 7605.59C2946.95 7605.59 2925.46 7631.76 2925.46 7677.27C2925.46 7722.97 2946.95 7749.14 2979.95 7749.14ZM3131.12 7783.71C3118.62 7783.71 3110.03 7775.31 3110.03 7761.45V7592.11C3110.03 7579.22 3117.84 7570.82 3130.15 7570.82C3142.26 7570.82 3150.66 7579.22 3150.66 7592.3V7608.52H3151.63C3162.77 7585.08 3184.25 7571.02 3215.89 7571.02C3261.2 7571.02 3287.18 7599.92 3287.18 7646.99V7761.45C3287.18 7775.31 3278.39 7783.71 3265.89 7783.71C3253.59 7783.71 3244.8 7775.31 3244.8 7761.45V7655.2C3244.8 7624.34 3230.34 7607.34 3201.05 7607.34C3171.36 7607.34 3152.22 7628.44 3152.22 7660.27V7761.45C3152.22 7775.31 3143.43 7783.71 3131.12 7783.71ZM3414.13 7857.34C3376.83 7856.95 3347.34 7842.5 3333.27 7820.23C3330.54 7815.55 3329.37 7811.25 3329.37 7806.37C3329.37 7796.6 3336.59 7789.57 3347.34 7789.57C3353.78 7789.57 3357.88 7791.72 3363.55 7797.38C3380.34 7814.96 3394.8 7822.58 3414.91 7822.97C3449.29 7823.36 3470.19 7803.83 3470.19 7775.12V7742.5H3469.21C3457.69 7764.77 3433.47 7779.41 3404.17 7779.41C3352.41 7779.41 3318.82 7738.98 3318.82 7675.51C3318.82 7611.25 3352.02 7571.21 3405.15 7571.21C3434.25 7571.21 3456.91 7585.86 3469.41 7609.1H3470.19V7592.5C3470.19 7578.83 3479.37 7570.82 3491.48 7570.82C3503.59 7570.82 3512.57 7578.83 3512.57 7592.5V7774.34C3512.57 7825.12 3475.27 7857.93 3414.13 7857.34ZM3415.5 7745.04C3448.51 7745.04 3470.38 7718.09 3470.38 7675.9C3470.38 7633.71 3448.51 7605.98 3415.5 7605.98C3383.08 7605.98 3361.98 7632.93 3361.98 7675.7C3361.98 7718.67 3383.08 7745.04 3415.5 7745.04ZM3576.83 7783.71C3564.52 7783.71 3555.73 7775.31 3555.73 7761.45V7516.72C3555.73 7502.85 3564.52 7494.45 3576.83 7494.45C3589.13 7494.45 3597.92 7502.85 3597.92 7516.72V7761.45C3597.92 7775.31 3589.13 7783.71 3576.83 7783.71ZM3666.67 7856.56C3647.14 7856.56 3636.4 7849.34 3636.4 7836.25C3636.4 7827.27 3642.65 7821.41 3652.8 7821.41C3657.3 7821.41 3658.86 7821.6 3663.74 7821.6C3675.46 7821.6 3687.38 7815.16 3694.99 7794.06L3698.9 7782.15L3630.15 7602.27C3628.59 7597.97 3627.8 7593.67 3627.8 7590.35C3627.8 7578.83 3636.98 7570.82 3649.29 7570.82C3659.84 7570.82 3665.89 7575.31 3669.6 7587.03L3721.95 7741.72H3722.53L3775.07 7587.03C3778.59 7575.51 3784.45 7570.82 3795.19 7570.82C3807.3 7570.82 3815.7 7578.83 3815.7 7590.16C3815.7 7593.48 3814.91 7597.77 3813.55 7601.88L3742.26 7790.35C3724.09 7839.77 3704.76 7856.56 3666.67 7856.56ZM4052.22 7784.69C3970.97 7784.69 3920.19 7729.02 3920.19 7639.18C3920.19 7549.73 3970.97 7493.48 4052.22 7493.48C4133.27 7493.48 4184.25 7549.73 4184.25 7639.18C4184.25 7691.91 4166.67 7733.32 4135.23 7757.73L4154.76 7784.88C4158.08 7789.57 4159.25 7792.89 4159.25 7797.97C4159.25 7808.32 4151.24 7815.74 4140.3 7815.74C4133.27 7815.74 4128.2 7812.81 4123.7 7806.37L4102.22 7776.29C4087.18 7781.95 4070.38 7784.69 4052.22 7784.69ZM4052.22 7746.41C4061.59 7746.41 4070.38 7745.04 4078.59 7742.5L4061.4 7718.48C4058.08 7713.98 4056.91 7709.88 4056.91 7705.78C4056.91 7695.43 4064.52 7688.2 4074.88 7688.2C4081.91 7688.2 4086.2 7690.55 4090.7 7696.6L4109.25 7721.99C4128.39 7704.22 4139.33 7675.51 4139.33 7639.18C4139.33 7573.36 4105.73 7531.76 4052.22 7531.76C3998.7 7531.76 3964.91 7573.36 3964.91 7639.18C3964.91 7704.8 3998.7 7746.41 4052.22 7746.41ZM4292.06 7783.71C4247.34 7783.71 4219.99 7754.61 4219.99 7707.54V7593.28C4219.99 7579.22 4228.59 7570.82 4241.09 7570.82C4253.39 7570.82 4262.18 7579.22 4262.18 7593.28V7699.34C4262.18 7730.59 4277.02 7747.38 4306.12 7747.38C4336.59 7747.38 4354.95 7726.29 4354.95 7694.26V7593.28C4354.95 7579.22 4363.74 7570.82 4376.05 7570.82C4388.55 7570.82 4397.14 7579.22 4397.14 7593.28V7762.23C4397.14 7775.31 4389.13 7783.71 4377.02 7783.71C4364.91 7783.71 4356.71 7775.31 4356.71 7762.42V7745.23H4355.73C4344.41 7769.84 4323.51 7783.71 4292.06 7783.71ZM4499.09 7783.52C4458.86 7783.52 4430.54 7758.52 4430.54 7721.6C4430.54 7685.66 4458.27 7663.59 4506.91 7660.86L4563.35 7657.54V7641.72C4563.35 7618.87 4547.92 7605.2 4522.14 7605.2C4501.83 7605.2 4488.35 7612.42 4476.63 7631.17C4472.34 7637.42 4466.87 7640.16 4459.45 7640.16C4448.9 7640.16 4441.28 7633.12 4441.28 7622.58C4441.28 7618.28 4442.45 7613.59 4444.99 7608.91C4455.73 7585.66 4486.79 7570.82 4523.7 7570.82C4573.51 7570.82 4605.34 7597.19 4605.34 7638.4V7762.42C4605.34 7775.7 4596.95 7783.71 4585.03 7783.71C4573.31 7783.71 4565.3 7776.09 4564.91 7763.59V7746.21H4563.94C4552.02 7769.06 4525.85 7783.52 4499.09 7783.52ZM4510.62 7750.12C4540.11 7750.12 4563.35 7729.8 4563.35 7703.05V7686.84L4512.57 7689.96C4487.38 7691.72 4473.12 7702.85 4473.12 7720.43C4473.12 7738.4 4488.16 7750.12 4510.62 7750.12ZM4669.02 7783.71C4656.71 7783.71 4647.92 7775.31 4647.92 7761.45V7516.72C4647.92 7502.85 4656.71 7494.45 4669.02 7494.45C4681.32 7494.45 4690.11 7502.85 4690.11 7516.72V7761.45C4690.11 7775.31 4681.32 7783.71 4669.02 7783.71ZM4755.93 7543.48C4742.45 7543.48 4731.52 7532.54 4731.52 7519.26C4731.52 7505.78 4742.45 7495.23 4755.93 7495.23C4769.6 7495.23 4780.54 7505.78 4780.54 7519.26C4780.54 7532.54 4769.6 7543.48 4755.93 7543.48ZM4755.93 7783.71C4743.23 7783.71 4734.84 7774.92 4734.84 7761.45V7593.28C4734.84 7579.61 4743.23 7570.82 4755.93 7570.82C4768.62 7570.82 4777.02 7579.61 4777.02 7593.28V7761.45C4777.02 7774.92 4768.62 7783.71 4755.93 7783.71ZM4853.78 7783.71C4840.89 7783.71 4832.49 7775.7 4832.49 7761.64V7607.93H4817.84C4807.88 7607.93 4801.05 7602.07 4801.05 7591.52C4801.05 7581.37 4807.88 7574.92 4817.84 7574.92H4832.49V7554.8C4832.49 7514.96 4851.83 7496.41 4887.18 7496.21C4909.64 7496.21 4920.38 7503.44 4920.38 7514.77C4920.38 7521.6 4917.06 7525.7 4910.23 7527.66C4907.3 7528.44 4903.78 7529.02 4899.48 7529.02C4881.71 7529.22 4874.29 7537.62 4874.29 7556.37V7574.92H4902.02C4911.98 7574.92 4918.82 7581.37 4918.82 7591.52C4918.82 7602.07 4911.98 7607.93 4902.02 7607.93H4874.88V7761.64C4874.88 7775.7 4866.48 7783.71 4853.78 7783.71ZM4971.55 7543.48C4958.08 7543.48 4947.14 7532.54 4947.14 7519.26C4947.14 7505.78 4958.08 7495.23 4971.55 7495.23C4985.23 7495.23 4996.16 7505.78 4996.16 7519.26C4996.16 7532.54 4985.23 7543.48 4971.55 7543.48ZM4971.55 7783.71C4958.86 7783.71 4950.46 7774.92 4950.46 7761.45V7593.28C4950.46 7579.61 4958.86 7570.82 4971.55 7570.82C4984.25 7570.82 4992.65 7579.61 4992.65 7593.28V7761.45C4992.65 7774.92 4984.25 7783.71 4971.55 7783.71ZM5124.88 7783.91C5062.96 7783.91 5026.63 7744.65 5026.63 7678.24C5026.63 7613.01 5063.74 7570.82 5121.95 7570.82C5176.63 7570.82 5214.33 7610.27 5214.33 7666.33C5214.33 7680 5206.52 7687.81 5193.43 7687.81H5069.21V7688.79C5069.21 7726.29 5090.3 7749.73 5123.9 7749.73C5146.95 7749.73 5161.4 7741.72 5177.02 7720.43C5181.52 7715.16 5185.81 7713.01 5191.87 7713.01C5202.02 7713.01 5209.45 7719.65 5209.45 7730.2C5209.45 7733.52 5208.27 7737.42 5206.52 7741.52C5193.04 7768.48 5163.16 7783.91 5124.88 7783.91ZM5069.41 7658.32H5172.14C5171.16 7626.09 5151.05 7604.8 5121.75 7604.8C5092.65 7604.8 5071.55 7626.29 5069.41 7658.32ZM5324.29 7783.52C5272.34 7783.52 5237.96 7742.11 5237.96 7677.27C5237.96 7612.42 5272.34 7571.21 5323.9 7571.21C5353.39 7571.21 5376.83 7586.05 5388.35 7608.71H5389.13V7516.72C5389.13 7502.85 5397.92 7494.45 5410.42 7494.45C5422.73 7494.45 5431.52 7502.85 5431.52 7516.72V7762.62C5431.52 7775.9 5422.92 7783.71 5410.62 7783.71C5398.7 7783.71 5389.13 7775.9 5389.13 7762.62V7743.48H5388.55C5378 7767.5 5356.32 7783.52 5324.29 7783.52ZM5335.42 7747.77C5367.84 7747.77 5389.52 7720.23 5389.52 7677.27C5389.52 7634.69 5367.84 7606.76 5335.42 7606.76C5302.02 7606.76 5281.12 7634.1 5281.12 7677.27C5281.12 7720.62 5302.02 7747.77 5335.42 7747.77Z" fill="#6D6D6D"/>
<path d="M3194.26 10990.7C3113.01 10990.7 3062.23 10934.8 3062.23 10845.2C3062.23 10755.5 3113.01 10699.5 3194.26 10699.5C3275.31 10699.5 3326.29 10755.5 3326.29 10845.2C3326.29 10934.8 3275.31 10990.7 3194.26 10990.7ZM3194.26 10952.2C3247.77 10952.2 3281.37 10910.8 3281.37 10845.2C3281.37 10779.4 3247.77 10738 3194.26 10738C3140.74 10738 3106.95 10779.4 3106.95 10845.2C3106.95 10910.8 3140.74 10952.2 3194.26 10952.2ZM3442.11 10989.7C3427.07 10989.7 3418.87 10983.5 3413.01 10968.2L3352.07 10807.9C3350.7 10804.2 3349.73 10800.1 3349.73 10796.2C3349.73 10784.4 3358.71 10776.8 3371.02 10776.8C3380.78 10776.8 3387.42 10782.1 3390.94 10793.4L3441.91 10944.8H3442.7L3493.67 10793C3497.19 10782.1 3503.83 10776.8 3513.4 10776.8C3525.51 10776.8 3534.1 10784.8 3534.1 10796C3534.1 10799.7 3533.32 10803.8 3531.95 10807.3L3471.02 10968.2C3465.55 10983.1 3456.56 10989.7 3442.11 10989.7ZM3645.82 10989.9C3583.91 10989.9 3547.58 10950.6 3547.58 10884.2C3547.58 10819 3584.69 10776.8 3642.89 10776.8C3697.58 10776.8 3735.27 10816.3 3735.27 10872.3C3735.27 10886 3727.46 10893.8 3714.38 10893.8H3590.16V10894.8C3590.16 10932.3 3611.25 10955.7 3644.84 10955.7C3667.89 10955.7 3682.34 10947.7 3697.97 10926.4C3702.46 10921.2 3706.76 10919 3712.81 10919C3722.97 10919 3730.39 10925.6 3730.39 10936.2C3730.39 10939.5 3729.22 10943.4 3727.46 10947.5C3713.98 10974.5 3684.1 10989.9 3645.82 10989.9ZM3590.35 10864.3H3693.09C3692.11 10832.1 3671.99 10810.8 3642.7 10810.8C3613.59 10810.8 3592.5 10832.3 3590.35 10864.3ZM3789.18 10989.7C3776.48 10989.7 3768.09 10981.1 3768.09 10967.4V10798.1C3768.09 10785.2 3776.29 10776.8 3788.2 10776.8C3799.92 10776.8 3808.12 10785.2 3808.12 10798.1V10815.7H3809.1C3814.77 10792.6 3833.71 10777.2 3854.22 10777.2C3861.64 10777.2 3867.3 10779 3870.82 10782.3C3874.73 10785.4 3876.48 10790.5 3876.48 10797.1C3876.48 10803.8 3874.34 10808.7 3870.23 10812C3865.94 10815.7 3859.69 10817.4 3850.9 10817.4C3821.99 10817.6 3810.27 10837 3810.27 10862.6V10967.4C3810.27 10981.1 3801.68 10989.7 3789.18 10989.7ZM3955.2 10989.5C3914.96 10989.5 3886.64 10964.5 3886.64 10927.6C3886.64 10891.7 3914.38 10869.6 3963.01 10866.9L4019.45 10863.5V10847.7C4019.45 10824.9 4004.02 10811.2 3978.24 10811.2C3957.93 10811.2 3944.45 10818.4 3932.73 10837.2C3928.44 10843.4 3922.97 10846.2 3915.55 10846.2C3905 10846.2 3897.38 10839.1 3897.38 10828.6C3897.38 10824.3 3898.55 10819.6 3901.09 10814.9C3911.84 10791.7 3942.89 10776.8 3979.8 10776.8C4029.61 10776.8 4061.45 10803.2 4061.45 10844.4V10968.4C4061.45 10981.7 4053.05 10989.7 4041.13 10989.7C4029.41 10989.7 4021.41 10982.1 4021.02 10969.6V10952.2H4020.04C4008.12 10975.1 3981.95 10989.5 3955.2 10989.5ZM3966.72 10956.1C3996.21 10956.1 4019.45 10935.8 4019.45 10909V10892.8L3968.67 10896C3943.48 10897.7 3929.22 10908.9 3929.22 10926.4C3929.22 10944.4 3944.26 10956.1 3966.72 10956.1ZM4125.12 10989.7C4112.81 10989.7 4104.02 10981.3 4104.02 10967.4V10722.7C4104.02 10708.9 4112.81 10700.5 4125.12 10700.5C4137.42 10700.5 4146.21 10708.9 4146.21 10722.7V10967.4C4146.21 10981.3 4137.42 10989.7 4125.12 10989.7ZM4212.23 10989.7C4199.92 10989.7 4191.13 10981.3 4191.13 10967.4V10722.7C4191.13 10708.9 4199.92 10700.5 4212.23 10700.5C4224.53 10700.5 4233.32 10708.9 4233.32 10722.7V10967.4C4233.32 10981.3 4224.53 10989.7 4212.23 10989.7ZM4459.1 10990.7C4404.41 10990.7 4366.91 10967.1 4355.98 10934.2C4354.61 10929.9 4353.63 10925.3 4353.63 10920.6C4353.63 10907.9 4361.45 10899.7 4373.36 10899.7C4383.32 10899.7 4389.77 10904.2 4394.06 10914.7C4402.85 10941.1 4428.44 10953.4 4461.05 10953.4C4496.8 10953.4 4522.38 10935 4522.38 10909.8C4522.38 10888 4507.54 10874.3 4469.84 10866.1L4438.98 10859.6C4382.73 10847.7 4357.15 10821.5 4357.15 10780.9C4357.15 10732.7 4399.53 10699.5 4459.49 10699.5C4508.12 10699.5 4546.41 10722.3 4557.34 10760C4558.32 10762.8 4558.91 10766.1 4558.91 10770.2C4558.91 10781.5 4550.9 10788.9 4539.57 10788.9C4529.02 10788.9 4522.58 10784 4518.09 10773.9C4508.52 10747.9 4487.03 10736.8 4458.91 10736.8C4425.9 10736.8 4401.48 10752.8 4401.48 10778.6C4401.48 10799.1 4416.13 10812.8 4452.66 10820.6L4483.32 10827C4542.5 10839.5 4566.72 10863.1 4566.72 10904.2C4566.72 10957.3 4524.92 10990.7 4459.1 10990.7ZM4688.79 10989.9C4630 10989.9 4591.72 10949.1 4591.72 10883.7C4591.72 10818.6 4629.8 10776.8 4688.4 10776.8C4728.05 10776.8 4762.03 10797.9 4771.02 10826.6C4772.19 10829.9 4772.97 10833.5 4772.97 10836.4C4772.97 10847.1 4765.35 10853.8 4755 10853.8C4746.02 10853.8 4740.94 10850.3 4735.86 10840.9C4725.31 10821.4 4710.86 10812 4689.18 10812C4656.17 10812 4634.69 10839.5 4634.69 10883.3C4634.69 10928 4656.56 10954.6 4689.18 10954.6C4712.03 10954.6 4725.9 10944.4 4735.86 10926.6C4741.72 10916.5 4746.21 10913 4755.39 10913C4765.74 10913 4773.36 10920 4773.36 10930.5C4773.36 10933.9 4772.58 10937.4 4771.02 10941.5C4760.27 10969.8 4726.88 10989.9 4688.79 10989.9ZM4895.82 10989.9C4837.03 10989.9 4798.36 10949.5 4798.36 10883.3C4798.36 10817.2 4837.23 10776.8 4895.82 10776.8C4954.41 10776.8 4993.28 10817.2 4993.28 10883.3C4993.28 10949.5 4954.61 10989.9 4895.82 10989.9ZM4895.82 10955.1C4929.02 10955.1 4950.31 10929 4950.31 10883.3C4950.31 10837.8 4928.83 10811.6 4895.82 10811.6C4862.81 10811.6 4841.33 10837.8 4841.33 10883.3C4841.33 10929 4862.81 10955.1 4895.82 10955.1ZM5046.99 10989.7C5034.3 10989.7 5025.9 10981.1 5025.9 10967.4V10798.1C5025.9 10785.2 5034.1 10776.8 5046.02 10776.8C5057.73 10776.8 5065.94 10785.2 5065.94 10798.1V10815.7H5066.91C5072.58 10792.6 5091.52 10777.2 5112.03 10777.2C5119.45 10777.2 5125.12 10779 5128.63 10782.3C5132.54 10785.4 5134.3 10790.5 5134.3 10797.1C5134.3 10803.8 5132.15 10808.7 5128.05 10812C5123.75 10815.7 5117.5 10817.4 5108.71 10817.4C5079.8 10817.6 5068.09 10837 5068.09 10862.6V10967.4C5068.09 10981.1 5059.49 10989.7 5046.99 10989.7ZM5237.23 10989.9C5175.31 10989.9 5138.98 10950.6 5138.98 10884.2C5138.98 10819 5176.09 10776.8 5234.3 10776.8C5288.98 10776.8 5326.68 10816.3 5326.68 10872.3C5326.68 10886 5318.87 10893.8 5305.78 10893.8H5181.56V10894.8C5181.56 10932.3 5202.66 10955.7 5236.25 10955.7C5259.3 10955.7 5273.75 10947.7 5289.38 10926.4C5293.87 10921.2 5298.16 10919 5304.22 10919C5314.38 10919 5321.8 10925.6 5321.8 10936.2C5321.8 10939.5 5320.62 10943.4 5318.87 10947.5C5305.39 10974.5 5275.51 10989.9 5237.23 10989.9ZM5181.76 10864.3H5284.49C5283.52 10832.1 5263.4 10810.8 5234.1 10810.8C5205 10810.8 5183.91 10832.3 5181.76 10864.3Z" fill="#6D6D6D"/>
<path d="M3644.17 13172.9C3557.84 13172.9 3489.48 13128.4 3452.38 13046.8C3432.45 13003 3422.69 12950.7 3422.69 12887.8C3422.69 12699.1 3506.28 12587.4 3647.3 12587.4C3727.38 12587.4 3791.44 12623.3 3821.52 12677.6C3827.77 12689 3830.89 12699.1 3830.89 12710C3830.89 12730.8 3815.66 12746 3792.61 12746C3775.03 12746 3763.7 12737.8 3749.64 12717.9C3723.08 12678.8 3691.05 12660.8 3646.52 12660.8C3558.23 12660.8 3509.02 12740.5 3506.67 12878V12883.1H3508.23C3530.89 12831.9 3587.92 12792.1 3664.48 12792.1C3772.3 12792.1 3850.03 12871 3850.03 12977.6C3850.03 13090.9 3763.31 13172.9 3644.17 13172.9ZM3643 13099.1C3710.19 13099.1 3762.92 13046.8 3762.92 12980.8C3762.92 12912.4 3713.31 12863.2 3644.17 12863.2C3575.03 12863.2 3523.86 12912 3523.86 12978.8C3523.86 13046 3576.2 13099.1 3643 13099.1ZM3964.09 13162C3937.53 13162 3922.69 13147.2 3922.69 13125.3C3922.69 13108.1 3927.77 13098.7 3946.91 13079.6L4123.08 12901.5C4196.52 12826.5 4214.48 12797.5 4214.48 12752.6C4214.48 12699.1 4173.08 12660 4116.44 12660C4060.97 12660 4022.69 12688.6 4003.16 12743.6C3995.34 12761.2 3985.19 12771.8 3963.7 12771.8C3939.09 12771.8 3925.03 12756.5 3925.03 12734.7C3925.03 12728 3925.81 12722.2 3927.38 12716.3C3939.48 12656.9 4004.72 12587.8 4116.83 12587.8C4224.64 12587.8 4300.81 12654.2 4300.81 12747.2C4300.81 12811.2 4270.73 12856.5 4175.81 12951.5L4041.44 13086.2V13088.2H4275.42C4299.25 13088.2 4314.09 13103 4314.09 13125.3C4314.09 13147.2 4299.25 13162 4275.42 13162H3964.09ZM4491.44 13169.4C4474.64 13169.4 4460.58 13158.9 4460.58 13142.5C4460.58 13133.9 4463.31 13127.2 4468 13120.6L4645.73 12864L4820.34 12610C4830.5 12595.2 4837.92 12590.9 4851.59 12590.9C4867.61 12590.9 4880.89 12602.2 4880.89 12617.9C4880.89 12625.7 4878.94 12632.3 4873.86 12639.3L4701.59 12889L4521.52 13150.7C4511.75 13164.7 4504.33 13169.4 4491.44 13169.4ZM4484.02 12883.5C4411.75 12883.5 4367.61 12828 4367.61 12737C4367.61 12646.4 4412.53 12591.7 4484.02 12591.7C4555.89 12591.7 4600.42 12646.4 4600.42 12737C4600.42 12827.6 4556.28 12883.5 4484.02 12883.5ZM4484.02 12832.7C4516.05 12832.7 4534.8 12799.5 4534.8 12737C4534.8 12674.9 4515.66 12642.9 4484.02 12642.9C4452.38 12642.9 4433.23 12675.3 4433.23 12737.4C4433.23 12799.5 4451.98 12832.7 4484.02 12832.7ZM4857.84 13168.6C4785.97 13168.6 4741.44 13112.8 4741.44 13022.2C4741.44 12931.5 4786.36 12876.8 4857.84 12876.8C4929.72 12876.8 4974.25 12931.1 4974.25 13022.2C4974.25 13112.4 4930.11 13168.6 4857.84 13168.6ZM4857.84 13117.5C4889.88 13117.5 4909.02 13084.7 4909.02 13022.2C4909.02 12960 4889.88 12927.6 4857.84 12927.6C4826.2 12927.6 4807.06 12960 4807.06 13022.2C4807.06 13084.7 4826.2 13117.5 4857.84 13117.5Z" fill="#6D6D6D"/>
<path d="M10051.3 7260.69C9970.09 7260.69 9919.3 7204.83 9919.3 7115.18C9919.3 7025.53 9970.09 6969.48 10051.3 6969.48C10132.4 6969.48 10183.4 7025.53 10183.4 7115.18C10183.4 7204.83 10132.4 7260.69 10051.3 7260.69ZM10051.3 7222.21C10104.9 7222.21 10138.4 7180.8 10138.4 7115.18C10138.4 7049.36 10104.9 7007.95 10051.3 7007.95C9997.82 7007.95 9964.03 7049.36 9964.03 7115.18C9964.03 7180.8 9997.82 7222.21 10051.3 7222.21ZM10253.7 7259.71C10240.8 7259.71 10232.4 7251.7 10232.4 7237.64V7083.93H10217.7C10207.8 7083.93 10200.9 7078.07 10200.9 7067.52C10200.9 7057.37 10207.8 7050.92 10217.7 7050.92H10232.4V7030.8C10232.4 6990.96 10251.7 6972.41 10287.1 6972.21C10309.5 6972.21 10320.3 6979.44 10320.3 6990.77C10320.3 6997.6 10317 7001.7 10310.1 7003.66C10307.2 7004.44 10303.7 7005.02 10299.4 7005.02C10281.6 7005.22 10274.2 7013.62 10274.2 7032.37V7050.92H10301.9C10311.9 7050.92 10318.7 7057.37 10318.7 7067.52C10318.7 7078.07 10311.9 7083.93 10301.9 7083.93H10274.8V7237.64C10274.8 7251.7 10266.4 7259.71 10253.7 7259.71ZM10382.6 7259.71C10369.7 7259.71 10361.3 7251.7 10361.3 7237.64V7083.93H10346.6C10336.7 7083.93 10329.9 7078.07 10329.9 7067.52C10329.9 7057.37 10336.7 7050.92 10346.6 7050.92H10361.3V7030.8C10361.3 6990.96 10380.6 6972.41 10416 6972.21C10438.4 6972.21 10449.2 6979.44 10449.2 6990.77C10449.2 6997.6 10445.9 7001.7 10439 7003.66C10436.1 7004.44 10432.6 7005.02 10428.3 7005.02C10410.5 7005.22 10403.1 7013.62 10403.1 7032.37V7050.92H10430.8C10440.8 7050.92 10447.6 7057.37 10447.6 7067.52C10447.6 7078.07 10440.8 7083.93 10430.8 7083.93H10403.7V7237.64C10403.7 7251.7 10395.3 7259.71 10382.6 7259.71ZM10558.4 7259.91C10496.5 7259.91 10460.1 7220.65 10460.1 7154.24C10460.1 7089.01 10497.2 7046.82 10555.4 7046.82C10610.1 7046.82 10647.8 7086.27 10647.8 7142.33C10647.8 7156 10640 7163.81 10626.9 7163.81H10502.7V7164.79C10502.7 7202.29 10523.8 7225.73 10557.4 7225.73C10580.4 7225.73 10594.9 7217.72 10610.5 7196.43C10615 7191.16 10619.3 7189.01 10625.4 7189.01C10635.5 7189.01 10642.9 7195.65 10642.9 7206.2C10642.9 7209.52 10641.8 7213.42 10640 7217.52C10626.5 7244.48 10596.6 7259.91 10558.4 7259.91ZM10502.9 7134.32H10605.6C10604.7 7102.09 10584.5 7080.8 10555.2 7080.8C10526.1 7080.8 10505 7102.29 10502.9 7134.32ZM10701.7 7259.71C10689 7259.71 10680.6 7251.12 10680.6 7237.45V7068.11C10680.6 7055.22 10688.8 7046.82 10700.8 7046.82C10712.5 7046.82 10720.7 7055.22 10720.7 7068.11V7085.69H10721.6C10727.3 7062.64 10746.3 7047.21 10766.8 7047.21C10774.2 7047.21 10779.9 7048.97 10783.4 7052.29C10787.3 7055.41 10789 7060.49 10789 7067.13C10789 7073.77 10786.9 7078.66 10782.8 7081.98C10778.5 7085.69 10772.2 7087.45 10763.4 7087.45C10734.5 7087.64 10722.8 7106.98 10722.8 7132.56V7237.45C10722.8 7251.12 10714.2 7259.71 10701.7 7259.71ZM10920.1 7256C10906.4 7256 10898.2 7247.41 10898.2 7233.34V6993.7C10898.2 6979.63 10906.4 6971.04 10920.1 6971.04C10933.6 6971.04 10942 6979.63 10942 6993.7V7218.11H11056C11068.1 7218.11 11076.3 7225.53 11076.3 7237.05C11076.3 7248.58 11068.1 7256 11056 7256H10920.1ZM11128.1 7019.48C11114.6 7019.48 11103.7 7008.54 11103.7 6995.26C11103.7 6981.78 11114.6 6971.23 11128.1 6971.23C11141.8 6971.23 11152.7 6981.78 11152.7 6995.26C11152.7 7008.54 11141.8 7019.48 11128.1 7019.48ZM11128.1 7259.71C11115.4 7259.71 11107 7250.92 11107 7237.45V7069.28C11107 7055.61 11115.4 7046.82 11128.1 7046.82C11140.8 7046.82 11149.2 7055.61 11149.2 7069.28V7237.45C11149.2 7250.92 11140.8 7259.71 11128.1 7259.71ZM11215 7259.71C11202.7 7259.71 11193.9 7251.31 11193.9 7237.45V6992.72C11193.9 6978.85 11202.7 6970.45 11215 6970.45C11227.3 6970.45 11236.1 6978.85 11236.1 6992.72V7138.23H11236.5L11321.8 7054.63C11327.1 7048.97 11331.6 7046.82 11337.9 7046.82C11348.2 7046.82 11356.2 7054.83 11356.2 7064.79C11356.2 7070.84 11354.5 7074.75 11349 7079.83L11285.5 7139.98L11355.2 7226.31C11359.7 7231.98 11360.9 7235.88 11360.9 7241.16C11360.9 7251.9 11352.5 7259.71 11341.2 7259.71C11333.4 7259.71 11328.7 7257.17 11323 7249.36L11254.9 7164.98L11236.1 7182.56V7237.45C11236.1 7251.31 11227.3 7259.71 11215 7259.71ZM11473.6 7259.91C11411.7 7259.91 11375.4 7220.65 11375.4 7154.24C11375.4 7089.01 11412.5 7046.82 11470.7 7046.82C11525.4 7046.82 11563.1 7086.27 11563.1 7142.33C11563.1 7156 11555.2 7163.81 11542.2 7163.81H11417.9V7164.79C11417.9 7202.29 11439 7225.73 11472.6 7225.73C11495.7 7225.73 11510.1 7217.72 11525.8 7196.43C11530.2 7191.16 11534.5 7189.01 11540.6 7189.01C11550.8 7189.01 11558.2 7195.65 11558.2 7206.2C11558.2 7209.52 11557 7213.42 11555.2 7217.52C11541.8 7244.48 11511.9 7259.91 11473.6 7259.91ZM11418.1 7134.32H11520.9C11519.9 7102.09 11499.8 7080.8 11470.5 7080.8C11441.4 7080.8 11420.3 7102.29 11418.1 7134.32ZM11618.5 7259.71C11606.2 7259.71 11597.4 7251.31 11597.4 7237.45V6992.72C11597.4 6978.85 11606.2 6970.45 11618.5 6970.45C11630.8 6970.45 11639.6 6978.85 11639.6 6992.72V7237.45C11639.6 7251.31 11630.8 7259.71 11618.5 7259.71ZM11705.4 7019.48C11692 7019.48 11681 7008.54 11681 6995.26C11681 6981.78 11692 6971.23 11705.4 6971.23C11719.1 6971.23 11730 6981.78 11730 6995.26C11730 7008.54 11719.1 7019.48 11705.4 7019.48ZM11705.4 7259.71C11692.7 7259.71 11684.3 7250.92 11684.3 7237.45V7069.28C11684.3 7055.61 11692.7 7046.82 11705.4 7046.82C11718.1 7046.82 11726.5 7055.61 11726.5 7069.28V7237.45C11726.5 7250.92 11718.1 7259.71 11705.4 7259.71ZM11792.4 7259.71C11780 7259.71 11771.3 7251.31 11771.3 7237.45V6992.33C11771.3 6979.05 11779.3 6970.45 11792.2 6970.45C11805.2 6970.45 11813.1 6979.05 11813.1 6992.33V7084.91H11814C11825.4 7060.88 11847.8 7047.02 11879.1 7047.02C11924.2 7047.02 11951.1 7077.09 11951.1 7123.58V7237.45C11951.1 7251.31 11942.4 7259.71 11929.9 7259.71C11917.5 7259.71 11908.8 7251.31 11908.8 7237.45V7131.78C11908.8 7101.51 11893.5 7083.34 11863.8 7083.34C11832.6 7083.34 11813.4 7104.83 11813.4 7137.25V7237.45C11813.4 7251.31 11804.7 7259.71 11792.4 7259.71ZM12080.2 7259.91C12021.5 7259.91 11982.8 7219.48 11982.8 7153.27C11982.8 7087.25 12021.6 7046.82 12080.2 7046.82C12138.8 7046.82 12177.7 7087.25 12177.7 7153.27C12177.7 7219.48 12139 7259.91 12080.2 7259.91ZM12080.2 7225.14C12113.4 7225.14 12134.7 7198.97 12134.7 7153.27C12134.7 7107.76 12113.2 7081.59 12080.2 7081.59C12047.2 7081.59 12025.8 7107.76 12025.8 7153.27C12025.8 7198.97 12047.2 7225.14 12080.2 7225.14ZM12298.6 7259.91C12239.8 7259.91 12201.1 7219.48 12201.1 7153.27C12201.1 7087.25 12240 7046.82 12298.6 7046.82C12357.2 7046.82 12396.1 7087.25 12396.1 7153.27C12396.1 7219.48 12357.4 7259.91 12298.6 7259.91ZM12298.6 7225.14C12331.8 7225.14 12353.1 7198.97 12353.1 7153.27C12353.1 7107.76 12331.6 7081.59 12298.6 7081.59C12265.6 7081.59 12244.1 7107.76 12244.1 7153.27C12244.1 7198.97 12265.6 7225.14 12298.6 7225.14ZM12505.8 7259.52C12453.9 7259.52 12419.5 7218.11 12419.5 7153.27C12419.5 7088.42 12453.9 7047.21 12505.4 7047.21C12534.9 7047.21 12558.4 7062.05 12569.9 7084.71H12570.7V6992.72C12570.7 6978.85 12579.5 6970.45 12592 6970.45C12604.3 6970.45 12613.1 6978.85 12613.1 6992.72V7238.62C12613.1 7251.9 12604.5 7259.71 12592.2 7259.71C12580.2 7259.71 12570.7 7251.9 12570.7 7238.62V7219.48H12570.1C12559.5 7243.5 12537.9 7259.52 12505.8 7259.52ZM12517 7223.77C12549.4 7223.77 12571.1 7196.23 12571.1 7153.27C12571.1 7110.69 12549.4 7082.76 12517 7082.76C12483.6 7082.76 12462.7 7110.1 12462.7 7153.27C12462.7 7196.62 12483.6 7223.77 12517 7223.77Z" fill="#6D6D6D"/>
<path d="M7000.13 11620.1C6986.46 11620.1 6978.26 11611.5 6978.26 11597.5V11357.8C6978.26 11343.8 6986.46 11335.2 7000.13 11335.2H7083.92C7138.61 11335.2 7176.7 11372.9 7176.7 11427.7C7176.7 11482.8 7137.83 11520.7 7082.55 11520.7H7022.01V11597.5C7022.01 11611.5 7013.61 11620.1 7000.13 11620.1ZM7022.01 11484H7072.2C7110.29 11484 7131.97 11463.5 7131.97 11427.9C7131.97 11392.4 7110.29 11372.1 7072.4 11372.1H7022.01V11484ZM7230.99 11620.7C7218.3 11620.7 7209.9 11612.1 7209.9 11598.4V11429.1C7209.9 11416.2 7218.1 11407.8 7230.02 11407.8C7241.73 11407.8 7249.94 11416.2 7249.94 11429.1V11446.7H7250.91C7256.58 11423.6 7275.52 11408.2 7296.03 11408.2C7303.45 11408.2 7309.12 11410 7312.63 11413.3C7316.54 11416.4 7318.3 11421.5 7318.3 11428.1C7318.3 11434.8 7316.15 11439.7 7312.05 11443C7307.75 11446.7 7301.5 11448.4 7292.71 11448.4C7263.8 11448.6 7252.09 11468 7252.09 11493.6V11598.4C7252.09 11612.1 7243.49 11620.7 7230.99 11620.7ZM7420.45 11620.9C7361.66 11620.9 7322.98 11580.5 7322.98 11514.3C7322.98 11448.2 7361.85 11407.8 7420.45 11407.8C7479.04 11407.8 7517.91 11448.2 7517.91 11514.3C7517.91 11580.5 7479.23 11620.9 7420.45 11620.9ZM7420.45 11586.1C7453.65 11586.1 7474.94 11560 7474.94 11514.3C7474.94 11468.8 7453.45 11442.6 7420.45 11442.6C7387.44 11442.6 7365.95 11468.8 7365.95 11514.3C7365.95 11560 7387.44 11586.1 7420.45 11586.1ZM7584.12 11620.7C7571.23 11620.7 7562.83 11612.7 7562.83 11598.6V11444.9H7548.18C7538.22 11444.9 7531.38 11439.1 7531.38 11428.5C7531.38 11418.4 7538.22 11411.9 7548.18 11411.9H7562.83V11391.8C7562.83 11352 7582.16 11333.4 7617.52 11333.2C7639.98 11333.2 7650.72 11340.4 7650.72 11351.8C7650.72 11358.6 7647.4 11362.7 7640.56 11364.7C7637.63 11365.4 7634.12 11366 7629.82 11366C7612.05 11366.2 7604.62 11374.6 7604.62 11393.4V11411.9H7632.36C7642.32 11411.9 7649.16 11418.4 7649.16 11428.5C7649.16 11439.1 7642.32 11444.9 7632.36 11444.9H7605.21V11598.6C7605.21 11612.7 7596.81 11620.7 7584.12 11620.7ZM7759.9 11620.9C7697.98 11620.9 7661.66 11581.6 7661.66 11515.2C7661.66 11450 7698.77 11407.8 7756.97 11407.8C7811.66 11407.8 7849.35 11447.3 7849.35 11503.3C7849.35 11517 7841.54 11524.8 7828.45 11524.8H7704.23V11525.8C7704.23 11563.3 7725.33 11586.7 7758.92 11586.7C7781.97 11586.7 7796.42 11578.7 7812.05 11557.4C7816.54 11552.2 7820.84 11550 7826.89 11550C7837.05 11550 7844.47 11556.6 7844.47 11567.2C7844.47 11570.5 7843.3 11574.4 7841.54 11578.5C7828.06 11605.5 7798.18 11620.9 7759.9 11620.9ZM7704.43 11495.3H7807.16C7806.19 11463.1 7786.07 11441.8 7756.77 11441.8C7727.67 11441.8 7706.58 11463.3 7704.43 11495.3ZM7957.95 11620.9C7917.52 11620.9 7887.83 11604.3 7878.06 11579.1C7876.7 11576 7876.3 11573.1 7876.3 11570.3C7876.3 11559.8 7883.92 11553.5 7894.47 11553.5C7901.5 11553.5 7907.55 11556.8 7912.83 11564.7C7923.38 11581.3 7935.68 11588.7 7960.09 11588.7C7984.12 11588.7 8000.33 11578.3 8000.33 11561.3C8000.33 11547.9 7992.32 11540.6 7970.25 11535.4L7937.83 11527.7C7897.98 11518.4 7878.45 11498.8 7878.45 11469.5C7878.45 11432.4 7910.68 11407.8 7959.51 11407.8C7996.62 11407.8 8027.09 11426.8 8032.95 11451C8033.34 11453.3 8033.73 11455.3 8033.73 11457.2C8033.73 11466.6 8027.87 11472.9 8017.32 11472.9C8010.48 11472.9 8004.43 11470.5 8000.33 11463.9C7991.15 11448.2 7978.65 11440 7957.95 11440C7935.29 11440 7919.66 11451.2 7919.66 11467.2C7919.66 11480.1 7929.62 11489.1 7951.3 11494.1L7983.14 11501.6C8026.3 11511.5 8042.91 11527 8042.91 11557.4C8042.91 11595.5 8008.73 11620.9 7957.95 11620.9ZM8151.3 11620.9C8110.88 11620.9 8081.19 11604.3 8071.42 11579.1C8070.05 11576 8069.66 11573.1 8069.66 11570.3C8069.66 11559.8 8077.28 11553.5 8087.83 11553.5C8094.86 11553.5 8100.91 11556.8 8106.19 11564.7C8116.73 11581.3 8129.04 11588.7 8153.45 11588.7C8177.48 11588.7 8193.69 11578.3 8193.69 11561.3C8193.69 11547.9 8185.68 11540.6 8163.61 11535.4L8131.19 11527.7C8091.34 11518.4 8071.81 11498.8 8071.81 11469.5C8071.81 11432.4 8104.04 11407.8 8152.87 11407.8C8189.98 11407.8 8220.45 11426.8 8226.3 11451C8226.7 11453.3 8227.09 11455.3 8227.09 11457.2C8227.09 11466.6 8221.23 11472.9 8210.68 11472.9C8203.84 11472.9 8197.79 11470.5 8193.69 11463.9C8184.51 11448.2 8172.01 11440 8151.3 11440C8128.65 11440 8113.02 11451.2 8113.02 11467.2C8113.02 11480.1 8122.98 11489.1 8144.66 11494.1L8176.5 11501.6C8219.66 11511.5 8236.27 11527 8236.27 11557.4C8236.27 11595.5 8202.09 11620.9 8151.3 11620.9ZM8291.34 11380.5C8277.87 11380.5 8266.93 11369.5 8266.93 11356.3C8266.93 11342.8 8277.87 11332.2 8291.34 11332.2C8305.02 11332.2 8315.95 11342.8 8315.95 11356.3C8315.95 11369.5 8305.02 11380.5 8291.34 11380.5ZM8291.34 11620.7C8278.65 11620.7 8270.25 11611.9 8270.25 11598.4V11430.3C8270.25 11416.6 8278.65 11407.8 8291.34 11407.8C8304.04 11407.8 8312.44 11416.6 8312.44 11430.3V11598.4C8312.44 11611.9 8304.04 11620.7 8291.34 11620.7ZM8443.88 11620.9C8385.09 11620.9 8346.42 11580.5 8346.42 11514.3C8346.42 11448.2 8385.29 11407.8 8443.88 11407.8C8502.48 11407.8 8541.34 11448.2 8541.34 11514.3C8541.34 11580.5 8502.67 11620.9 8443.88 11620.9ZM8443.88 11586.1C8477.09 11586.1 8498.38 11560 8498.38 11514.3C8498.38 11468.8 8476.89 11442.6 8443.88 11442.6C8410.88 11442.6 8389.39 11468.8 8389.39 11514.3C8389.39 11560 8410.88 11586.1 8443.88 11586.1ZM8595.05 11620.7C8582.55 11620.7 8573.96 11612.3 8573.96 11598.4V11429.1C8573.96 11416.2 8581.77 11407.8 8594.08 11407.8C8606.19 11407.8 8614.59 11416.2 8614.59 11429.3V11445.5H8615.56C8626.7 11422.1 8648.18 11408 8679.82 11408C8725.13 11408 8751.11 11436.9 8751.11 11484V11598.4C8751.11 11612.3 8742.32 11620.7 8729.82 11620.7C8717.52 11620.7 8708.73 11612.3 8708.73 11598.4V11492.2C8708.73 11461.3 8694.27 11444.3 8664.98 11444.3C8635.29 11444.3 8616.15 11465.4 8616.15 11497.3V11598.4C8616.15 11612.3 8607.36 11620.7 8595.05 11620.7ZM8852.09 11620.5C8811.85 11620.5 8783.53 11595.5 8783.53 11558.6C8783.53 11522.7 8811.27 11500.6 8859.9 11497.9L8916.34 11494.5V11478.7C8916.34 11455.9 8900.91 11442.2 8875.13 11442.2C8854.82 11442.2 8841.34 11449.4 8829.62 11468.2C8825.33 11474.4 8819.86 11477.2 8812.44 11477.2C8801.89 11477.2 8794.27 11470.1 8794.27 11459.6C8794.27 11455.3 8795.45 11450.6 8797.98 11445.9C8808.73 11422.7 8839.78 11407.8 8876.7 11407.8C8926.5 11407.8 8958.34 11434.2 8958.34 11475.4V11599.4C8958.34 11612.7 8949.94 11620.7 8938.02 11620.7C8926.3 11620.7 8918.3 11613.1 8917.91 11600.6V11583.2H8916.93C8905.02 11606.1 8878.84 11620.5 8852.09 11620.5ZM8863.61 11587.1C8893.1 11587.1 8916.34 11566.8 8916.34 11540V11523.8L8865.56 11527C8840.37 11528.7 8826.11 11539.9 8826.11 11557.4C8826.11 11575.4 8841.15 11587.1 8863.61 11587.1ZM9022.01 11620.7C9009.7 11620.7 9000.91 11612.3 9000.91 11598.4V11353.7C9000.91 11339.9 9009.7 11331.5 9022.01 11331.5C9034.31 11331.5 9043.1 11339.9 9043.1 11353.7V11598.4C9043.1 11612.3 9034.31 11620.7 9022.01 11620.7ZM9108.92 11380.5C9095.45 11380.5 9084.51 11369.5 9084.51 11356.3C9084.51 11342.8 9095.45 11332.2 9108.92 11332.2C9122.59 11332.2 9133.53 11342.8 9133.53 11356.3C9133.53 11369.5 9122.59 11380.5 9108.92 11380.5ZM9108.92 11620.7C9096.23 11620.7 9087.83 11611.9 9087.83 11598.4V11430.3C9087.83 11416.6 9096.23 11407.8 9108.92 11407.8C9121.62 11407.8 9130.02 11416.6 9130.02 11430.3V11598.4C9130.02 11611.9 9121.62 11620.7 9108.92 11620.7ZM9248.96 11620.9C9208.53 11620.9 9178.84 11604.3 9169.08 11579.1C9167.71 11576 9167.32 11573.1 9167.32 11570.3C9167.32 11559.8 9174.94 11553.5 9185.48 11553.5C9192.52 11553.5 9198.57 11556.8 9203.84 11564.7C9214.39 11581.3 9226.7 11588.7 9251.11 11588.7C9275.13 11588.7 9291.34 11578.3 9291.34 11561.3C9291.34 11547.9 9283.34 11540.6 9261.27 11535.4L9228.84 11527.7C9189 11518.4 9169.47 11498.8 9169.47 11469.5C9169.47 11432.4 9201.7 11407.8 9250.52 11407.8C9287.63 11407.8 9318.1 11426.8 9323.96 11451C9324.35 11453.3 9324.74 11455.3 9324.74 11457.2C9324.74 11466.6 9318.88 11472.9 9308.34 11472.9C9301.5 11472.9 9295.45 11470.5 9291.34 11463.9C9282.16 11448.2 9269.66 11440 9248.96 11440C9226.3 11440 9210.68 11451.2 9210.68 11467.2C9210.68 11480.1 9220.64 11489.1 9242.32 11494.1L9274.16 11501.6C9317.32 11511.5 9333.92 11527 9333.92 11557.4C9333.92 11595.5 9299.74 11620.9 9248.96 11620.9ZM9387.63 11620.7C9374.94 11620.7 9366.54 11611.9 9366.54 11598.4V11429.3C9366.54 11416 9374.74 11407.8 9386.66 11407.8C9398.38 11407.8 9406.77 11415.8 9406.77 11429.3V11446.1H9407.75C9416.93 11423.2 9438.41 11408 9466.15 11408C9494.66 11408 9515.37 11422.7 9523.57 11448.2H9524.55C9535.09 11423.2 9559.31 11408 9588.61 11408C9629.23 11408 9655.8 11435 9655.8 11475.8V11598.4C9655.8 11611.9 9647.2 11620.7 9634.51 11620.7C9621.81 11620.7 9613.41 11611.9 9613.41 11598.4V11485.9C9613.41 11459.4 9599.16 11444.1 9574.16 11444.1C9549.16 11444.1 9531.77 11462.7 9531.77 11488.7V11598.4C9531.77 11611.9 9523.77 11620.7 9511.07 11620.7C9498.38 11620.7 9490.37 11611.9 9490.37 11598.4V11482.8C9490.37 11459.2 9475.33 11444.1 9451.5 11444.1C9426.5 11444.1 9408.73 11463.7 9408.73 11490V11598.4C9408.73 11611.9 9400.33 11620.7 9387.63 11620.7Z" fill="#6D6D6D"/>
<path d="M7102.2 13088.7C7047.52 13088.7 7010.02 13065.1 6999.08 13032.2C6997.71 13027.9 6996.73 13023.3 6996.73 13018.6C6996.73 13005.9 7004.55 12997.7 7016.46 12997.7C7026.42 12997.7 7032.87 13002.2 7037.16 13012.7C7045.95 13039.1 7071.54 13051.4 7104.16 13051.4C7139.9 13051.4 7165.48 13033 7165.48 13007.8C7165.48 12986 7150.64 12972.3 7112.95 12964.1L7082.09 12957.6C7025.84 12945.7 7000.25 12919.5 7000.25 12878.9C7000.25 12830.7 7042.63 12797.5 7102.59 12797.5C7151.23 12797.5 7189.51 12820.3 7200.45 12858C7201.42 12860.8 7202.01 12864.1 7202.01 12868.2C7202.01 12879.5 7194 12886.9 7182.67 12886.9C7172.12 12886.9 7165.68 12882 7161.19 12871.9C7151.62 12845.9 7130.13 12834.8 7102.01 12834.8C7069 12834.8 7044.59 12850.8 7044.59 12876.6C7044.59 12897.1 7059.23 12910.8 7095.76 12918.6L7126.42 12925C7185.6 12937.5 7209.82 12961.1 7209.82 13002.2C7209.82 13055.3 7168.02 13088.7 7102.2 13088.7ZM7256.3 13034.8V12911.9H7241.46C7230.52 12911.9 7223.88 12905.7 7223.88 12895.3C7223.88 12884.8 7230.52 12878.5 7241.46 12878.5H7256.3V12848.1C7256.3 12834.6 7264.7 12825.6 7277.59 12825.6C7290.29 12825.6 7298.69 12834.6 7298.69 12848.1V12878.5H7322.71C7333.65 12878.5 7340.29 12885 7340.29 12895.3C7340.29 12905.7 7333.65 12911.9 7322.71 12911.9H7298.69V13025.4C7298.69 13041.8 7304.35 13049.2 7319.59 13050.4L7322.91 13050.6C7335.02 13051.8 7341.07 13056.7 7341.07 13066.6C7341.07 13079.3 7331.3 13085.8 7310.6 13085.8H7308.45C7273.88 13085.8 7256.3 13068.8 7256.3 13034.8ZM7455.72 13087.9C7396.93 13087.9 7358.26 13047.5 7358.26 12981.3C7358.26 12915.2 7397.12 12874.8 7455.72 12874.8C7514.31 12874.8 7553.18 12915.2 7553.18 12981.3C7553.18 13047.5 7514.51 13087.9 7455.72 13087.9ZM7455.72 13053.1C7488.92 13053.1 7510.21 13027 7510.21 12981.3C7510.21 12935.8 7488.73 12909.6 7455.72 12909.6C7422.71 12909.6 7401.23 12935.8 7401.23 12981.3C7401.23 13027 7422.71 13053.1 7455.72 13053.1ZM7606.89 13087.7C7594.2 13087.7 7585.8 13079.1 7585.8 13065.4V12896.1C7585.8 12883.2 7594 12874.8 7605.91 12874.8C7617.63 12874.8 7625.84 12883.2 7625.84 12896.1V12913.7H7626.81C7632.48 12890.6 7651.42 12875.2 7671.93 12875.2C7679.35 12875.2 7685.02 12877 7688.53 12880.3C7692.44 12883.4 7694.2 12888.5 7694.2 12895.1C7694.2 12901.8 7692.05 12906.7 7687.95 12910C7683.65 12913.7 7677.4 12915.4 7668.61 12915.4C7639.7 12915.6 7627.98 12935 7627.98 12960.6V13065.4C7627.98 13079.1 7619.39 13087.7 7606.89 13087.7ZM7742.44 13160.6C7722.91 13160.6 7712.16 13153.3 7712.16 13140.2C7712.16 13131.3 7718.41 13125.4 7728.57 13125.4C7733.06 13125.4 7734.62 13125.6 7739.51 13125.6C7751.23 13125.6 7763.14 13119.2 7770.76 13098.1L7774.66 13086.1L7705.91 12906.3C7704.35 12902 7703.57 12897.7 7703.57 12894.4C7703.57 12882.8 7712.75 12874.8 7725.05 12874.8C7735.6 12874.8 7741.66 12879.3 7745.37 12891L7797.71 13045.7H7798.3L7850.84 12891C7854.35 12879.5 7860.21 12874.8 7870.95 12874.8C7883.06 12874.8 7891.46 12882.8 7891.46 12894.2C7891.46 12897.5 7890.68 12901.8 7889.31 12905.9L7818.02 13094.4C7799.86 13143.8 7780.52 13160.6 7742.44 13160.6ZM8125.45 13088.7C8045.76 13088.7 7995.95 13032.8 7995.95 12943C7995.95 12853.7 8046.34 12797.5 8125.05 12797.5C8176.81 12797.5 8218.22 12822.7 8235.8 12864.3C8238.53 12869.9 8239.9 12875.8 8239.9 12881.1C8239.9 12892.8 8232.09 12900.4 8220.37 12900.4C8210.02 12900.4 8203.18 12895.3 8198.3 12884C8185.21 12852.6 8157.48 12835.8 8125.05 12835.8C8073.88 12835.8 8040.68 12877.8 8040.68 12943C8040.68 13008.8 8073.49 13050.4 8125.25 13050.4C8159.62 13050.4 8185.99 13035.8 8199.08 13005.3C8203.77 12994.9 8209.43 12990.6 8219 12990.6C8230.91 12990.6 8239.12 12998.8 8239.12 13010.4C8239.12 13016.4 8237.55 13022.1 8234.43 13028.5C8216.27 13066.6 8177.79 13088.7 8125.45 13088.7ZM8367.44 13087.9C8308.65 13087.9 8269.98 13047.5 8269.98 12981.3C8269.98 12915.2 8308.84 12874.8 8367.44 12874.8C8426.03 12874.8 8464.9 12915.2 8464.9 12981.3C8464.9 13047.5 8426.23 13087.9 8367.44 13087.9ZM8367.44 13053.1C8400.64 13053.1 8421.93 13027 8421.93 12981.3C8421.93 12935.8 8400.45 12909.6 8367.44 12909.6C8334.43 12909.6 8312.95 12935.8 8312.95 12981.3C8312.95 13027 8334.43 13053.1 8367.44 13053.1ZM8518.61 13087.7C8505.91 13087.7 8497.52 13078.9 8497.52 13065.4V12896.3C8497.52 12883 8505.72 12874.8 8517.63 12874.8C8529.35 12874.8 8537.75 12882.8 8537.75 12896.3V12913.1H8538.73C8547.91 12890.2 8569.39 12875 8597.12 12875C8625.64 12875 8646.34 12889.7 8654.55 12915.2H8655.52C8666.07 12890.2 8690.29 12875 8719.59 12875C8760.21 12875 8786.77 12902 8786.77 12942.8V13065.4C8786.77 13078.9 8778.18 13087.7 8765.48 13087.7C8752.79 13087.7 8744.39 13078.9 8744.39 13065.4V12952.9C8744.39 12926.4 8730.13 12911.1 8705.13 12911.1C8680.13 12911.1 8662.75 12929.7 8662.75 12955.7V13065.4C8662.75 13078.9 8654.74 13087.7 8642.05 13087.7C8629.35 13087.7 8621.34 13078.9 8621.34 13065.4V12949.8C8621.34 12926.2 8606.3 12911.1 8582.48 12911.1C8557.48 12911.1 8539.7 12930.7 8539.7 12957V13065.4C8539.7 13078.9 8531.3 13087.7 8518.61 13087.7ZM8848.69 13156.9C8836.19 13156.9 8827.59 13148.3 8827.59 13134.4V12896.5C8827.59 12883 8835.99 12874.8 8847.91 12874.8C8859.82 12874.8 8868.41 12883 8868.41 12896.5V12913.9H8869.2C8881.3 12890.2 8904.94 12875.2 8934.62 12875.2C8986.77 12875.2 9021.15 12916.2 9021.15 12981.3C9021.15 13046.3 8986.97 13087.5 8935.41 13087.5C8905.91 13087.5 8882.48 13073.1 8870.76 13050.2H8869.78V13134.4C8869.78 13148.3 8860.99 13156.9 8848.69 13156.9ZM8923.49 13051.8C8956.89 13051.8 8977.79 13024.4 8977.79 12981.3C8977.79 12938.3 8956.89 12910.8 8923.49 12910.8C8891.27 12910.8 8869.59 12938.9 8869.59 12981.3C8869.59 13024 8891.07 13051.8 8923.49 13051.8ZM9076.42 13087.7C9064.12 13087.7 9055.33 13079.3 9055.33 13065.4V12820.7C9055.33 12806.9 9064.12 12798.5 9076.42 12798.5C9088.73 12798.5 9097.52 12806.9 9097.52 12820.7V13065.4C9097.52 13079.3 9088.73 13087.7 9076.42 13087.7ZM9229.94 13087.9C9168.02 13087.9 9131.7 13048.6 9131.7 12982.2C9131.7 12917 9168.8 12874.8 9227.01 12874.8C9281.7 12874.8 9319.39 12914.3 9319.39 12970.3C9319.39 12984 9311.58 12991.8 9298.49 12991.8H9174.27V12992.8C9174.27 13030.3 9195.37 13053.7 9228.96 13053.7C9252.01 13053.7 9266.46 13045.7 9282.09 13024.4C9286.58 13019.2 9290.88 13017 9296.93 13017C9307.09 13017 9314.51 13023.6 9314.51 13034.2C9314.51 13037.5 9313.34 13041.4 9311.58 13045.5C9298.1 13072.5 9268.22 13087.9 9229.94 13087.9ZM9174.47 12962.3H9277.2C9276.23 12930.1 9256.11 12908.8 9226.81 12908.8C9197.71 12908.8 9176.62 12930.3 9174.47 12962.3ZM9364.51 13034.8V12911.9H9349.66C9338.73 12911.9 9332.09 12905.7 9332.09 12895.3C9332.09 12884.8 9338.73 12878.5 9349.66 12878.5H9364.51V12848.1C9364.51 12834.6 9372.91 12825.6 9385.8 12825.6C9398.49 12825.6 9406.89 12834.6 9406.89 12848.1V12878.5H9430.91C9441.85 12878.5 9448.49 12885 9448.49 12895.3C9448.49 12905.7 9441.85 12911.9 9430.91 12911.9H9406.89V13025.4C9406.89 13041.8 9412.55 13049.2 9427.79 13050.4L9431.11 13050.6C9443.22 13051.8 9449.27 13056.7 9449.27 13066.6C9449.27 13079.3 9439.51 13085.8 9418.8 13085.8H9416.66C9382.09 13085.8 9364.51 13068.8 9364.51 13034.8ZM9503.18 12847.5C9489.7 12847.5 9478.77 12836.5 9478.77 12823.3C9478.77 12809.8 9489.7 12799.2 9503.18 12799.2C9516.85 12799.2 9527.79 12809.8 9527.79 12823.3C9527.79 12836.5 9516.85 12847.5 9503.18 12847.5ZM9503.18 13087.7C9490.48 13087.7 9482.09 13078.9 9482.09 13065.4V12897.3C9482.09 12883.6 9490.48 12874.8 9503.18 12874.8C9515.88 12874.8 9524.27 12883.6 9524.27 12897.3V13065.4C9524.27 13078.9 9515.88 13087.7 9503.18 13087.7ZM9655.72 13087.9C9596.93 13087.9 9558.26 13047.5 9558.26 12981.3C9558.26 12915.2 9597.12 12874.8 9655.72 12874.8C9714.31 12874.8 9753.18 12915.2 9753.18 12981.3C9753.18 13047.5 9714.51 13087.9 9655.72 13087.9ZM9655.72 13053.1C9688.92 13053.1 9710.21 13027 9710.21 12981.3C9710.21 12935.8 9688.73 12909.6 9655.72 12909.6C9622.71 12909.6 9601.23 12935.8 9601.23 12981.3C9601.23 13027 9622.71 13053.1 9655.72 13053.1ZM9806.89 13087.7C9794.39 13087.7 9785.8 13079.3 9785.8 13065.4V12896.1C9785.8 12883.2 9793.61 12874.8 9805.91 12874.8C9818.02 12874.8 9826.42 12883.2 9826.42 12896.3V12912.5H9827.4C9838.53 12889.1 9860.02 12875 9891.66 12875C9936.97 12875 9962.95 12903.9 9962.95 12951V13065.4C9962.95 13079.3 9954.16 13087.7 9941.66 13087.7C9929.35 13087.7 9920.56 13079.3 9920.56 13065.4V12959.2C9920.56 12928.3 9906.11 12911.3 9876.81 12911.3C9847.12 12911.3 9827.98 12932.4 9827.98 12964.3V13065.4C9827.98 13079.3 9819.2 13087.7 9806.89 13087.7Z" fill="#6D6D6D"/>
<path d="M7022.05 14551C7008.38 14551 7000.18 14542.4 7000.18 14528.3V14291.8C7000.18 14277.8 7008.38 14269.2 7022.05 14269.2H7161.9C7174.01 14269.2 7182.21 14276.6 7182.21 14288.1C7182.21 14299.6 7174.01 14307.1 7161.9 14307.1H7043.93V14389.3H7155.45C7166.98 14389.3 7174.98 14396.3 7174.98 14407.4C7174.98 14418.4 7167.17 14425.6 7155.45 14425.6H7043.93V14513.1H7161.9C7174.01 14513.1 7182.21 14520.5 7182.21 14532.1C7182.21 14543.6 7174.01 14551 7161.9 14551H7022.05ZM7231.04 14554.7C7219.71 14554.7 7211.51 14547.3 7211.51 14536.9C7211.51 14532.4 7213.07 14528.3 7216.39 14523.7L7271.47 14448.5L7217.17 14373.1C7214.24 14369 7212.88 14364.9 7212.88 14360C7212.88 14349.6 7221.66 14341.8 7233.19 14341.8C7241.2 14341.8 7245.49 14344.6 7250.57 14352.4L7296.86 14419.9H7297.64L7342.95 14353C7348.03 14344.9 7352.72 14341.8 7359.95 14341.8C7371.86 14341.8 7380.26 14349.4 7380.26 14359.8C7380.26 14364.7 7378.89 14368.8 7375.38 14373.3L7321.08 14447.1L7375.18 14523.3C7378.3 14527.8 7379.67 14531.9 7379.67 14536.2C7379.67 14547.1 7371.08 14554.7 7359.55 14554.7C7352.13 14554.7 7347.25 14551.6 7343.15 14545.3L7295.88 14475.4H7294.91L7247.64 14544.9C7242.95 14552.2 7238.27 14554.7 7231.04 14554.7ZM7436.12 14623.9C7423.62 14623.9 7415.02 14615.3 7415.02 14601.4V14363.5C7415.02 14350 7423.42 14341.8 7435.34 14341.8C7447.25 14341.8 7455.84 14350 7455.84 14363.5V14380.9H7456.62C7468.73 14357.2 7492.37 14342.2 7522.05 14342.2C7574.2 14342.2 7608.58 14383.2 7608.58 14448.3C7608.58 14513.3 7574.4 14554.5 7522.84 14554.5C7493.34 14554.5 7469.91 14540.1 7458.19 14517.2H7457.21V14601.4C7457.21 14615.3 7448.42 14623.9 7436.12 14623.9ZM7510.92 14518.8C7544.32 14518.8 7565.22 14491.4 7565.22 14448.3C7565.22 14405.3 7544.32 14377.8 7510.92 14377.8C7478.7 14377.8 7457.02 14405.9 7457.02 14448.3C7457.02 14491 7478.5 14518.8 7510.92 14518.8ZM7730.26 14554.9C7668.34 14554.9 7632.02 14515.6 7632.02 14449.2C7632.02 14384 7669.12 14341.8 7727.33 14341.8C7782.02 14341.8 7819.71 14381.3 7819.71 14437.3C7819.71 14451 7811.9 14458.8 7798.81 14458.8H7674.59V14459.8C7674.59 14497.3 7695.69 14520.7 7729.28 14520.7C7752.33 14520.7 7766.78 14512.7 7782.41 14491.4C7786.9 14486.2 7791.2 14484 7797.25 14484C7807.41 14484 7814.83 14490.6 7814.83 14501.2C7814.83 14504.5 7813.66 14508.4 7811.9 14512.5C7798.42 14539.5 7768.54 14554.9 7730.26 14554.9ZM7674.79 14429.3H7777.52C7776.55 14397.1 7756.43 14375.8 7727.13 14375.8C7698.03 14375.8 7676.94 14397.3 7674.79 14429.3ZM7873.62 14554.7C7860.92 14554.7 7852.52 14546.1 7852.52 14532.4V14363.1C7852.52 14350.2 7860.73 14341.8 7872.64 14341.8C7884.36 14341.8 7892.56 14350.2 7892.56 14363.1V14380.7H7893.54C7899.2 14357.6 7918.15 14342.2 7938.66 14342.2C7946.08 14342.2 7951.74 14344 7955.26 14347.3C7959.16 14350.4 7960.92 14355.5 7960.92 14362.1C7960.92 14368.8 7958.77 14373.7 7954.67 14377C7950.38 14380.7 7944.12 14382.4 7935.34 14382.4C7906.43 14382.6 7894.71 14402 7894.71 14427.6V14532.4C7894.71 14546.1 7886.12 14554.7 7873.62 14554.7ZM7996.08 14501.8V14378.9H7981.23C7970.3 14378.9 7963.66 14372.7 7963.66 14362.3C7963.66 14351.8 7970.3 14345.5 7981.23 14345.5H7996.08V14315.1C7996.08 14301.6 8004.48 14292.6 8017.37 14292.6C8030.06 14292.6 8038.46 14301.6 8038.46 14315.1V14345.5H8062.48C8073.42 14345.5 8080.06 14352 8080.06 14362.3C8080.06 14372.7 8073.42 14378.9 8062.48 14378.9H8038.46V14492.4C8038.46 14508.8 8044.12 14516.2 8059.36 14517.4L8062.68 14517.6C8074.79 14518.8 8080.84 14523.7 8080.84 14533.6C8080.84 14546.3 8071.08 14552.8 8050.38 14552.8H8048.23C8013.66 14552.8 7996.08 14535.8 7996.08 14501.8ZM8134.75 14314.5C8121.27 14314.5 8110.34 14303.5 8110.34 14290.3C8110.34 14276.8 8121.27 14266.2 8134.75 14266.2C8148.42 14266.2 8159.36 14276.8 8159.36 14290.3C8159.36 14303.5 8148.42 14314.5 8134.75 14314.5ZM8134.75 14554.7C8122.05 14554.7 8113.66 14545.9 8113.66 14532.4V14364.3C8113.66 14350.6 8122.05 14341.8 8134.75 14341.8C8147.45 14341.8 8155.84 14350.6 8155.84 14364.3V14532.4C8155.84 14545.9 8147.45 14554.7 8134.75 14554.7ZM8274.79 14554.9C8234.36 14554.9 8204.67 14538.3 8194.91 14513.1C8193.54 14510 8193.15 14507.1 8193.15 14504.3C8193.15 14493.8 8200.77 14487.5 8211.31 14487.5C8218.34 14487.5 8224.4 14490.8 8229.67 14498.7C8240.22 14515.3 8252.52 14522.7 8276.94 14522.7C8300.96 14522.7 8317.17 14512.3 8317.17 14495.3C8317.17 14481.9 8309.16 14474.6 8287.09 14469.4L8254.67 14461.7C8214.83 14452.4 8195.3 14432.8 8195.3 14403.5C8195.3 14366.4 8227.52 14341.8 8276.35 14341.8C8313.46 14341.8 8343.93 14360.8 8349.79 14385C8350.18 14387.3 8350.57 14389.3 8350.57 14391.2C8350.57 14400.6 8344.71 14406.9 8334.16 14406.9C8327.33 14406.9 8321.27 14404.5 8317.17 14397.9C8307.99 14382.2 8295.49 14374 8274.79 14374C8252.13 14374 8236.51 14385.2 8236.51 14401.2C8236.51 14414.1 8246.47 14423.1 8268.15 14428.1L8299.98 14435.6C8343.15 14445.5 8359.75 14461 8359.75 14491.4C8359.75 14529.5 8325.57 14554.9 8274.79 14554.9ZM8481.43 14554.9C8419.52 14554.9 8383.19 14515.6 8383.19 14449.2C8383.19 14384 8420.3 14341.8 8478.5 14341.8C8533.19 14341.8 8570.88 14381.3 8570.88 14437.3C8570.88 14451 8563.07 14458.8 8549.98 14458.8H8425.77V14459.8C8425.77 14497.3 8446.86 14520.7 8480.45 14520.7C8503.5 14520.7 8517.95 14512.7 8533.58 14491.4C8538.07 14486.2 8542.37 14484 8548.42 14484C8558.58 14484 8566 14490.6 8566 14501.2C8566 14504.5 8564.83 14508.4 8563.07 14512.5C8549.59 14539.5 8519.71 14554.9 8481.43 14554.9ZM8425.96 14429.3H8528.7C8527.72 14397.1 8507.6 14375.8 8478.3 14375.8C8449.2 14375.8 8428.11 14397.3 8425.96 14429.3Z" fill="#6D6D6D"/>
<g filter="url(#filter3_d_26_172)">
<rect x="2377" y="8126" width="6649" height="488" rx="99" fill="url(#paint9_linear_26_172)"/>
</g>
<g filter="url(#filter4_d_26_172)">
<path d="M11314 7399L12293.5 7964.5V9095.5L11314 9661L10334.5 9095.5V7964.5L11314 7399Z" fill="#48C4CC"/>
</g>
<path d="M10738 8743L10920 8392.32V8390.56H10704.9V8320.25H11007.3V8391.44L10830.9 8743H10738ZM11216.7 8750.32C11184.7 8750.32 11156.8 8745.15 11132.9 8734.8C11109.1 8724.25 11090.2 8709.7 11076.1 8691.14C11062.2 8672.59 11054.3 8651.2 11052.4 8626.98L11052.1 8623.18H11136.5L11137 8626.4C11138.4 8636.55 11142.4 8645.64 11149.1 8653.64C11155.9 8661.46 11165 8667.71 11176.3 8672.39C11187.8 8676.89 11201.2 8679.13 11216.4 8679.13C11231.7 8679.13 11244.9 8676.69 11256 8671.81C11267.1 8666.73 11275.7 8659.8 11281.8 8651.01C11288 8642.02 11291.1 8631.77 11291.1 8620.25V8619.66C11291.1 8599.35 11284 8583.82 11269.8 8573.08C11255.5 8562.34 11235.6 8556.96 11210 8556.96H11161.7V8493.98H11208.8C11223.7 8493.98 11236.6 8491.54 11247.5 8486.65C11258.4 8481.77 11266.8 8475.03 11272.7 8466.44C11278.7 8457.65 11281.8 8447.59 11281.8 8436.26V8435.68C11281.8 8424.15 11279.1 8414.39 11273.9 8406.38C11268.8 8398.18 11261.3 8391.93 11251.3 8387.63C11241.5 8383.14 11229.7 8380.89 11215.9 8380.89C11202.2 8380.89 11190.1 8383.14 11179.5 8387.63C11169 8392.12 11160.6 8398.47 11154.3 8406.67C11148.1 8414.68 11144.3 8424.15 11142.9 8435.09L11142.6 8437.73H11061.5L11061.8 8434.21C11063.7 8409.6 11071.2 8388.31 11084.3 8370.34C11097.6 8352.18 11115.5 8338.12 11137.9 8328.16C11160.4 8318 11186.4 8312.92 11215.9 8312.92C11246.3 8312.92 11272.7 8317.61 11295 8326.98C11317.4 8336.16 11334.8 8349.05 11347.1 8365.66C11359.4 8382.26 11365.6 8401.69 11365.6 8423.96V8424.54C11365.6 8442.12 11361.7 8457.55 11353.8 8470.83C11346 8484.11 11335.4 8495.05 11321.9 8503.64C11308.6 8512.24 11293.8 8518.29 11277.4 8521.81V8523.57C11308.8 8526.5 11333.9 8536.65 11352.7 8554.04C11371.6 8571.42 11381.1 8594.46 11381.1 8623.18V8623.76C11381.1 8648.96 11374.3 8671.03 11360.6 8689.97C11346.9 8708.92 11327.8 8723.76 11303.2 8734.5C11278.6 8745.05 11249.7 8750.32 11216.7 8750.32ZM11530.2 8537.92C11509.9 8537.92 11492.4 8533.43 11477.8 8524.45C11463.1 8515.46 11451.8 8502.67 11443.8 8486.07C11436 8469.46 11432.1 8449.84 11432.1 8427.18V8426.89C11432.1 8404.23 11436 8384.7 11443.8 8368.29C11451.8 8351.69 11463.1 8338.9 11477.8 8329.91C11492.4 8320.93 11509.9 8316.44 11530.2 8316.44C11550.5 8316.44 11567.9 8320.93 11582.4 8329.91C11597 8338.9 11608.2 8351.69 11616.1 8368.29C11624.1 8384.7 11628.1 8404.23 11628.1 8426.89V8427.18C11628.1 8449.84 11624.1 8469.46 11616.1 8486.07C11608.2 8502.67 11597 8515.46 11582.4 8524.45C11567.9 8533.43 11550.5 8537.92 11530.2 8537.92ZM11530.2 8489.29C11541.9 8489.29 11550.9 8484.02 11557.2 8473.47C11563.4 8462.73 11566.5 8447.3 11566.5 8427.18V8426.89C11566.5 8406.96 11563.4 8391.73 11557.2 8381.18C11550.9 8370.44 11541.9 8365.07 11530.2 8365.07C11518.3 8365.07 11509.1 8370.44 11502.7 8381.18C11496.4 8391.73 11493.3 8406.96 11493.3 8426.89V8427.18C11493.3 8447.3 11496.4 8462.73 11502.7 8473.47C11509.1 8484.02 11518.3 8489.29 11530.2 8489.29ZM11573.9 8743H11508.5L11775.7 8320.25H11840.8L11573.9 8743ZM11819.4 8746.81C11799.1 8746.81 11781.6 8742.32 11766.9 8733.33C11752.3 8724.35 11741 8711.55 11732.9 8694.95C11725.1 8678.35 11721.2 8658.72 11721.2 8636.07V8635.77C11721.2 8613.12 11725.1 8593.59 11732.9 8577.18C11741 8560.58 11752.3 8547.79 11766.9 8538.8C11781.6 8529.82 11799.1 8525.32 11819.4 8525.32C11839.7 8525.32 11857.1 8529.82 11871.5 8538.8C11886.2 8547.79 11897.4 8560.58 11905.2 8577.18C11913.2 8593.59 11917.2 8613.12 11917.2 8635.77V8636.07C11917.2 8658.72 11913.2 8678.35 11905.2 8694.95C11897.4 8711.55 11886.2 8724.35 11871.5 8733.33C11857.1 8742.32 11839.7 8746.81 11819.4 8746.81ZM11819.4 8698.18C11831.1 8698.18 11840.1 8692.9 11846.3 8682.36C11852.6 8671.61 11855.7 8656.18 11855.7 8636.07V8635.77C11855.7 8615.85 11852.6 8600.62 11846.3 8590.07C11840.1 8579.33 11831.1 8573.96 11819.4 8573.96C11807.5 8573.96 11798.3 8579.33 11791.8 8590.07C11785.6 8600.62 11782.5 8615.85 11782.5 8635.77V8636.07C11782.5 8656.18 11785.6 8671.61 11791.8 8682.36C11798.3 8692.9 11807.5 8698.18 11819.4 8698.18Z" fill="white"/>
<rect x="6984" y="10246" width="5461" height="359" rx="179.5" fill="#D9D9D9"/>
<rect x="6984" y="10246" width="3199" height="359" rx="179.5" fill="#5180FF"/>
<rect x="6984" y="11713" width="5461" height="359" rx="179.5" fill="#D9D9D9"/>
<rect x="6984" y="11713" width="3584" height="359" rx="179.5" fill="#D467FF"/>
<rect x="6984" y="13180" width="5461" height="359" rx="179.5" fill="#D9D9D9"/>
<rect x="6984" y="13180" width="1149" height="359" rx="179.5" fill="#82E48D"/>
<rect x="6984" y="14647" width="5461" height="359" rx="179.5" fill="#D9D9D9"/>
<rect x="6984" y="14647" width="4541" height="359" rx="179.5" fill="#FFAC3F"/>
<path d="M5872 12877.5C5872 13805.1 5120.06 14557 4192.5 14557C3264.94 14557 2513 13805.1 2513 12877.5C2513 11949.9 3264.94 11198 4192.5 11198C5120.06 11198 5872 11949.9 5872 12877.5ZM2825.39 12877.5C2825.39 13632.5 3437.46 14244.6 4192.5 14244.6C4947.54 14244.6 5559.61 13632.5 5559.61 12877.5C5559.61 12122.5 4947.54 11510.4 4192.5 11510.4C3437.46 11510.4 2825.39 12122.5 2825.39 12877.5Z" fill="#F4F0F0"/>
<path d="M3220.06 14122.2C3186.06 14165.7 3193.62 14228.8 3239.08 14260.1C3430.66 14392.3 3647.93 14483.3 3877.22 14527.1C4139.3 14577.2 4409.55 14564.2 4665.57 14489C4921.59 14413.8 5156.02 14278.8 5349.44 14095C5542.86 13911.2 5689.71 13683.9 5777.81 13432C5865.91 13180.2 5892.73 12911 5856.06 12646.7C5819.39 12382.4 5720.27 12130.6 5566.92 11912.3C5413.57 11693.9 5210.4 11515.2 4974.24 11391C4767.63 11282.4 4540.98 11218.1 4308.82 11202C4253.73 11198.2 4208.48 11242.8 4207.94 11298.1L4206.84 11410.5C4206.3 11465.7 4250.69 11510.5 4305.73 11515.1C4488.22 11530.3 4666.16 11582 4828.84 11667.5C5021.07 11768.6 5186.45 11914.1 5311.28 12091.8C5436.1 12269.5 5516.79 12474.5 5546.64 12689.6C5576.49 12904.7 5554.66 13123.9 5482.94 13328.9C5411.23 13533.9 5291.69 13718.9 5134.25 13868.5C4976.81 14018.1 4785.98 14128.1 4577.58 14189.3C4369.17 14250.4 4149.19 14261.1 3935.86 14220.3C3755.33 14185.8 3583.96 14115.3 3431.8 14013.4C3385.91 13982.7 3323.26 13990.1 3289.26 14033.6L3220.06 14122.2Z" fill="#F7D600"/>
<rect x="7260" y="8001" width="242" height="727" rx="50" fill="#6A6767" fill-opacity="0.8"/>
<defs>
<filter id="filter0_d_26_172" x="3133" y="14349" width="8567" height="3520" filterUnits="userSpaceOnUse" color-interpolation-filters="sRGB">
<feFlood flood-opacity="0" result="BackgroundImageFix"/>
<feColorMatrix in="SourceAlpha" type="matrix" values="0 0 0 0 0 0 0 0 0 0 0 0 0 0 0 0 0 0 127 0" result="hardAlpha"/>
<feMorphology radius="30" operator="dilate" in="SourceAlpha" result="effect1_dropShadow_26_172"/>
<feOffset dx="25" dy="25"/>
<feGaussianBlur stdDeviation="125"/>
<feComposite in2="hardAlpha" operator="out"/>
<feColorMatrix type="matrix" values="0 0 0 0 0 0 0 0 0 0 0 0 0 0 0 0 0 0 0.2 0"/>
<feBlend mode="normal" in2="BackgroundImageFix" result="effect1_dropShadow_26_172"/>
<feBlend mode="normal" in="SourceGraphic" in2="effect1_dropShadow_26_172" result="shape"/>
</filter>
<filter id="filter1_d_26_172" x="1867" y="12761" width="11265" height="4518" filterUnits="userSpaceOnUse" color-interpolation-filters="sRGB">
<feFlood flood-opacity="0" result="BackgroundImageFix"/>
<feColorMatrix in="SourceAlpha" type="matrix" values="0 0 0 0 0 0 0 0 0 0 0 0 0 0 0 0 0 0 127 0" result="hardAlpha"/>
<feMorphology radius="30" operator="dilate" in="SourceAlpha" result="effect1_dropShadow_26_172"/>
<feOffset dx="25" dy="25"/>
<feGaussianBlur stdDeviation="125"/>
<feComposite in2="hardAlpha" operator="out"/>
<feColorMatrix type="matrix" values="0 0 0 0 0 0 0 0 0 0 0 0 0 0 0 0 0 0 0.2 0"/>
<feBlend mode="normal" in2="BackgroundImageFix" result="effect1_dropShadow_26_172"/>
<feBlend mode="normal" in="SourceGraphic" in2="effect1_dropShadow_26_172" result="shape"/>
</filter>
<filter id="filter2_d_26_172" x="876" y="5868" width="13197" height="10864" filterUnits="userSpaceOnUse" color-interpolation-filters="sRGB">
<feFlood flood-opacity="0" result="BackgroundImageFix"/>
<feColorMatrix in="SourceAlpha" type="matrix" values="0 0 0 0 0 0 0 0 0 0 0 0 0 0 0 0 0 0 127 0" result="hardAlpha"/>
<feMorphology radius="15" operator="dilate" in="SourceAlpha" result="effect1_dropShadow_26_172"/>
<feOffset dy="83"/>
<feGaussianBlur stdDeviation="125"/>
<feComposite in2="hardAlpha" operator="out"/>
<feColorMatrix type="matrix" values="0 0 0 0 0 0 0 0 0 0 0 0 0 0 0 0 0 0 0.2 0"/>
<feBlend mode="normal" in2="BackgroundImageFix" result="effect1_dropShadow_26_172"/>
<feBlend mode="normal" in="SourceGraphic" in2="effect1_dropShadow_26_172" result="shape"/>
</filter>
<filter id="filter3_d_26_172" x="2303" y="8080" width="6797" height="636" filterUnits="userSpaceOnUse" color-interpolation-filters="sRGB">
<feFlood flood-opacity="0" result="BackgroundImageFix"/>
<feColorMatrix in="SourceAlpha" type="matrix" values="0 0 0 0 0 0 0 0 0 0 0 0 0 0 0 0 0 0 127 0" result="hardAlpha"/>
<feMorphology radius="16" operator="erode" in="SourceAlpha" result="effect1_dropShadow_26_172"/>
<feOffset dy="28"/>
<feGaussianBlur stdDeviation="45"/>
<feComposite in2="hardAlpha" operator="out"/>
<feColorMatrix type="matrix" values="0 0 0 0 0 0 0 0 0 0 0 0 0 0 0 0 0 0 0.25 0"/>
<feBlend mode="normal" in2="BackgroundImageFix" result="effect1_dropShadow_26_172"/>
<feBlend mode="normal" in="SourceGraphic" in2="effect1_dropShadow_26_172" result="shape"/>
</filter>
<filter id="filter4_d_26_172" x="10244.5" y="7337" width="2138.95" height="2442" filterUnits="userSpaceOnUse" color-interpolation-filters="sRGB">
<feFlood flood-opacity="0" result="BackgroundImageFix"/>
<feColorMatrix in="SourceAlpha" type="matrix" values="0 0 0 0 0 0 0 0 0 0 0 0 0 0 0 0 0 0 127 0" result="hardAlpha"/>
<feOffset dy="28"/>
<feGaussianBlur stdDeviation="45"/>
<feComposite in2="hardAlpha" operator="out"/>
<feColorMatrix type="matrix" values="0 0 0 0 0 0 0 0 0 0 0 0 0 0 0 0 0 0 0.25 0"/>
<feBlend mode="normal" in2="BackgroundImageFix" result="effect1_dropShadow_26_172"/>
<feBlend mode="normal" in="SourceGraphic" in2="effect1_dropShadow_26_172" result="shape"/>
</filter>
<radialGradient id="paint0_radial_26_172" cx="0" cy="0" r="1" gradientUnits="userSpaceOnUse" gradientTransform="translate(10245.9 8505.52) rotate(-88.3541) scale(11983.1 6869.31)">
<stop stop-color="#EFCAFE" stop-opacity="0.6"/>
<stop offset="1" stop-color="#D9EEE9" stop-opacity="0"/>
</radialGradient>
<radialGradient id="paint1_radial_26_172" cx="0" cy="0" r="1" gradientUnits="userSpaceOnUse" gradientTransform="translate(6524.06 5784.82) rotate(-89.4606) scale(13074 3969.13)">
<stop stop-color="#BAC9EA" stop-opacity="0.28"/>
<stop offset="1" stop-color="#98B9FF" stop-opacity="0"/>
</radialGradient>
<linearGradient id="paint2_linear_26_172" x1="268" y1="3225.3" x2="14461" y2="3225.3" gradientUnits="userSpaceOnUse">
<stop stop-color="#FF0000" stop-opacity="0"/>
<stop offset="0.2" stop-color="#FF0000" stop-opacity="0.5"/>
<stop offset="0.505" stop-color="#FF0000"/>
<stop offset="0.8" stop-color="#FF0000" stop-opacity="0.5"/>
<stop offset="1" stop-color="#FF0000" stop-opacity="0"/>
</linearGradient>
<linearGradient id="paint3_linear_26_172" x1="268" y1="3225.3" x2="14461" y2="3225.3" gradientUnits="userSpaceOnUse">
<stop stop-color="#008204" stop-opacity="0"/>
<stop offset="0.2" stop-color="#008204" stop-opacity="0.5"/>
<stop offset="0.505" stop-color="#008204"/>
<stop offset="0.8" stop-color="#008204" stop-opacity="0.5"/>
<stop offset="1" stop-color="#008204" stop-opacity="0"/>
</linearGradient>
<linearGradient id="paint4_linear_26_172" x1="220.501" y1="3130.75" x2="14413.5" y2="3130.75" gradientUnits="userSpaceOnUse">
<stop stop-color="#0026FF" stop-opacity="0"/>
<stop offset="0.2" stop-color="#0026FF" stop-opacity="0.5"/>
<stop offset="0.505" stop-color="#0026FF"/>
<stop offset="0.8" stop-color="#0026FF" stop-opacity="0.5"/>
<stop offset="1" stop-color="#0026FF" stop-opacity="0"/>
</linearGradient>
<linearGradient id="paint5_linear_26_172" x1="192" y1="2825.5" x2="14632.5" y2="2825.5" gradientUnits="userSpaceOnUse">
<stop stop-color="#48ABFD" stop-opacity="0"/>
<stop offset="0.2" stop-color="#48ABFD" stop-opacity="0.5"/>
<stop offset="0.505" stop-color="#48ABFD"/>
<stop offset="0.8" stop-color="#48ABFD" stop-opacity="0.5"/>
<stop offset="1" stop-color="#48ABFD" stop-opacity="0"/>
</linearGradient>
<linearGradient id="paint6_linear_26_172" x1="233" y1="2738.47" x2="14686" y2="2738.47" gradientUnits="userSpaceOnUse">
<stop stop-color="#C39DDF" stop-opacity="0"/>
<stop offset="0.2" stop-color="#C39DDF" stop-opacity="0.5"/>
<stop offset="0.49" stop-color="#C39DDF"/>
<stop offset="0.8" stop-color="#C39DDF" stop-opacity="0.5"/>
<stop offset="1" stop-color="#C39DDF" stop-opacity="0"/>
</linearGradient>
<linearGradient id="paint7_linear_26_172" x1="213" y1="2568.2" x2="14653.5" y2="2568.2" gradientUnits="userSpaceOnUse">
<stop stop-color="#84C3ED" stop-opacity="0"/>
<stop offset="0.2" stop-color="#84C3ED" stop-opacity="0.5"/>
<stop offset="0.505" stop-color="#84C3ED"/>
<stop offset="0.8" stop-color="#84C3ED" stop-opacity="0.5"/>
<stop offset="1" stop-color="#84C3ED" stop-opacity="0"/>
</linearGradient>
<linearGradient id="paint8_linear_26_172" x1="233" y1="3290.5" x2="14673.5" y2="3290.5" gradientUnits="userSpaceOnUse">
<stop stop-color="#FC7333" stop-opacity="0"/>
<stop offset="0.2" stop-color="#FC7333" stop-opacity="0.5"/>
<stop offset="0.505" stop-color="#FC7333"/>
<stop offset="0.8" stop-color="#FC7333" stop-opacity="0.5"/>
<stop offset="1" stop-color="#FC7333" stop-opacity="0"/>
</linearGradient>
<linearGradient id="paint9_linear_26_172" x1="2377" y1="8370" x2="9026" y2="8370" gradientUnits="userSpaceOnUse">
<stop stop-color="#FF7575"/>
<stop offset="0.265" stop-color="#FBC24F"/>
<stop offset="0.48" stop-color="#5AA3D3"/>
<stop offset="0.724233" stop-color="#3DDAC7"/>
<stop offset="1" stop-color="#77FF99"/>
</linearGradient>
</defs>
</svg>
